<?xml version="1.0" encoding="UTF-8"?>
<svg width="95px" height="29px" viewBox="0 0 95 29" version="1.1" xmlns="http://www.w3.org/2000/svg" xmlns:xlink="http://www.w3.org/1999/xlink">
    <title>Brand 3 Copy</title>
    <g id="Design" stroke="none" stroke-width="1" fill="none" fill-rule="evenodd">
        <g id="Brand-3-Copy" fill-rule="nonzero">
            <g id="Group-16">
                <polygon id="Path" fill="#FFB71B" points="33.2720992 13.4206268 42.5614439 3.51910966e-13 23.986781 3.51910966e-13"></polygon>
                <path d="M79.7309026,26.4104084 L81.438177,22.5811206 C82.816682,23.6951779 84.5379803,24.2983436 86.3103518,24.2883951 C88.1894274,24.2883951 89.1289653,23.6172966 89.1289653,22.2750997 C89.1289653,21.3489839 88.64309,20.5530611 87.6713394,19.8873314 C86.8102333,19.3734924 85.904623,18.9382065 84.9654705,18.5867426 C81.4059643,17.1183792 79.6275534,15.058107 79.6302378,12.4059259 C79.5610817,10.6437643 80.4456605,8.98075624 81.9455275,8.05318139 C83.258196,7.1834378 84.9104404,6.74722381 86.9022606,6.74441916 C89.0018143,6.73555743 91.0729476,7.22986791 92.9421467,8.18605888 L91.5489463,11.9307882 C90.5020327,11.0261475 89.0376959,10.5738272 87.1559358,10.5738272 C85.4755053,10.5738272 84.6352901,11.2449256 84.6352901,12.5871225 C84.6352901,13.2917759 85.2231723,13.9642165 86.3949102,14.6004179 C87.2464215,15.0230414 88.1201199,15.3994038 89.0121941,15.7278632 C92.4186899,17.0700601 94.1205955,19.1585185 94.1179111,21.9932384 C94.2032692,23.9137191 93.2558052,25.7334029 91.6335047,26.7647483 C90.2188292,27.682811 88.4068633,28.1418424 86.1976072,28.1418424 C85.0642754,28.1688322 83.9323598,28.0456213 82.8313774,27.7754226 C81.7527118,27.4308408 80.7134559,26.9732983 79.7309026,26.4104084 M64.429858,26.4104084 L66.141159,22.5811206 C67.5193361,23.6957661 69.2408513,24.2990078 71.0133337,24.2883951 C72.8924094,24.2883951 73.8319472,23.6172966 73.8319472,22.2750997 C73.8319472,21.3489839 73.3447298,20.5530611 72.3702948,19.8873314 C71.5099031,19.3721639 70.6041695,18.9368188 69.6644259,18.5867426 C66.1049197,17.1183792 64.3251666,15.058107 64.3251666,12.4059259 C64.2568693,10.64497 65.1393822,8.98295521 66.6364297,8.05318139 C68.1224249,7.13526976 69.8477264,6.67976772 71.5931628,6.74453941 C73.6926984,6.73571394 75.7637952,7.23001571 77.6330488,8.18605888 L76.2398485,11.9307882 C75.1875661,11.0261475 73.7232293,10.5738272 71.846838,10.5738272 C70.1690919,10.5738272 69.3288766,11.2449256 69.3261922,12.5871225 C69.3261922,13.2917759 69.9140745,13.9642165 71.0858124,14.6004179 C71.9369453,15.0238579 72.8106887,15.4002397 73.7030963,15.7278632 C77.1042233,17.0700601 78.8061289,19.1585185 78.8088133,21.9932384 C78.8941714,23.9137191 77.9467073,25.7334029 76.3244069,26.7647483 C74.9070469,27.682811 73.0937389,28.1418424 70.8844828,28.1418424 C69.7524889,28.168618 68.621932,28.0454076 67.5222796,27.7754226 C66.4467106,27.4294529 65.4102676,26.9719604 64.429858,26.4104084 M48.5489843,15.3010446 L58.6758599,15.3010446 C58.3403106,12.2864704 56.6706177,10.7778411 53.666781,10.7751246 C50.9099086,10.7671035 49.2039764,12.2757328 48.5489843,15.3010446 M63.101083,18.9249763 L48.3798675,18.9249763 C48.4684525,20.6161443 49.0549925,21.9153909 50.1394876,22.822716 C51.1676104,23.6924596 52.5433622,24.1286736 54.266743,24.131358 C56.454524,24.131358 58.1228747,23.5568978 59.2717953,22.4079772 L61.1280536,26.0882811 C59.4368855,27.4573219 56.9122131,28.1418424 53.5540365,28.1418424 C50.3327639,28.1418424 47.8188292,27.2023045 46.0122321,25.3232289 C44.2056351,23.4441532 43.3157586,20.9033745 43.3426025,17.7008927 C43.3426025,14.6379994 44.2821403,12.0744033 46.161216,10.0101045 C48.0347623,7.88659157 50.7555862,6.70619074 53.5862492,6.78883191 C56.4800257,6.78883191 58.8449767,7.63978474 60.681102,9.34169041 C62.5601777,11.097284 63.4997155,13.4112314 63.4997155,16.2835328 C63.4544952,17.1845741 63.3196092,18.078868 63.0970564,18.9531624 M38.5106937,27.7351567 L33.2036471,21.02283 L28.6978921,27.7351567 L22.9962397,27.7351567 L30.666895,17.1935423 L23.3908456,7.12706553 L28.9113015,7.12706553 L33.2720992,13.4166002 L37.6288703,7.11901235 L43.1171134,7.11901235 L35.6920802,17.1854891 L44.3250906,27.7271035 L38.5106937,27.7351567 Z M4.93698047,17.3707123 C4.89275009,18.9664696 5.56486622,20.4983035 6.76907923,21.5462868 C7.92217972,22.6379184 9.46212258,23.226081 11.0493451,23.1810826 C12.6382637,23.2140516 14.1761499,22.6194409 15.329611,21.5261538 C16.5177915,20.4732268 17.1930682,18.9582582 17.1818428,17.3707123 C17.1818428,15.139981 16.1590887,13.4662615 14.1135807,12.3495537 C13.1767528,11.8261887 12.1224405,11.5491027 11.0493451,11.5442355 C9.46063552,11.5292647 7.9274078,12.1278437 6.76907923,13.2152707 C5.58264601,14.2677182 4.91372348,15.7849227 4.93698047,17.3707123 M16.8476357,7.08277303 L21.7802093,7.08277303 L21.7802093,27.6586515 L16.8476357,27.6586515 L16.8476357,25.44 C14.8880283,27.2492814 12.8143341,28.1418424 10.6265531,28.1176828 C7.77319039,28.1733039 5.03352842,27.0000011 3.1048817,24.8964103 C1.09295279,22.8401317 -0.0219501359,20.0702495 0.00440686665,17.1935423 C-0.0822775551,14.2455766 1.11336646,11.4048204 3.28205169,9.40611586 C5.17882013,7.57589317 7.72544967,6.57491421 10.3607981,6.62374169 C11.7210593,6.61990415 13.068762,6.88397181 14.32699,7.40087369 C15.3265561,7.88098956 16.1923229,8.60015691 16.8476357,9.49470085 L16.8476357,7.08277303 Z" id="Shape" fill="#121517"></path>
            </g>
        </g>
    </g>
</svg>