<svg xmlns="http://www.w3.org/2000/svg" width="144" height="28" viewBox="0 0 144 28">
    <path fill="#00B49C" d="M2.275 6.182C1.725 5.945 1.27 5.685.937 5.4c0 .877-.024 1.09-.024 1.279-.024.734-.024 1.563-.024 2.297 0 .355.334.734.955 1.113.144.094.287.165.43.26V6.182zM5.81 7.224l-.31-.072c-.645-.142-1.242-.284-1.792-.45v4.263c.359.118.765.26 1.195.378.286.072.597.166.908.237V7.224zm8.482 5.493h2.102V8.194c-.717 0-1.41-.023-2.102-.047v4.57zm-3.536-.308l2.102.118V8.076c-.717-.048-1.433-.095-2.102-.166v4.499zm-3.512-.568c.717.07 1.41.142 2.102.189V7.768c-.74-.095-1.433-.19-2.102-.284v4.357zM5.81 14.066c-.334-.189-.62-.378-.836-.568 0 .663-.024.853-.024 1.018-.024.592-.071 1.752-.024 2.32 0 .356.335.735.908 1.09l-.024-3.86zm3.536 1.184c-.31-.07-.597-.142-.884-.213-.43-.118-.836-.237-1.218-.355v3.954c.597.237 1.314.45 2.102.663V15.25zm3.512.592c-.74-.095-1.433-.19-2.102-.308v4.097c.645.141 1.361.26 2.102.378v-4.167zm3.536.332c-.454-.024-.884-.072-1.314-.095l-.788-.071v4.19c.669.072 1.385.143 2.102.19v-4.214zM9.346 12.03c-.693-.047-1.385-.118-2.102-.19v.048c.669.118 1.362.237 2.102.332v-.19zm3.512.497l-2.102-.118 2.102.118zM71.104 1.044h9.867c-.024 1.539-.478 3.102-1.457 3.954-1.027.876-1.96 1.539-3.87 1.61h-3.25c-.549 0-1.027.426-1.075.97V27.28h-5.853c.024-6.701 0-13.331 0-20.055 0-.805.096-1.634.334-2.439.263-.829.67-1.634 1.362-2.25.55-.52 1.219-.875 1.911-1.088.646-.213 1.314-.308 1.96-.403h.071zm50.553.805c.216.166.407.355.55.544.143-.19.31-.355.501-.52 2.079-1.682 12.185-1.54 14.407.473.716.64 1.194 1.444 1.457 2.296.263.806.358 1.681.358 2.51v20.102h-5.877c.024-6.582-.024-13.164-.024-19.77 0-.592-.477-1.066-1.075-1.066h-5.781c-.598 0-1.076.474-1.076 1.066v19.77h-5.805c-.024-6.606 0-13.14 0-19.77 0-.592-.478-1.066-1.075-1.066h-5.782c-.597 0-1.075.474-1.075 1.066v19.77h-5.877c.024-6.7 0-13.401 0-20.102 0-.829.096-1.68.359-2.51.262-.852.716-1.657 1.433-2.273.55-.497 1.195-.828 1.864-1.041 2.532-.734 10.798-.805 12.518.52m18.755 2.629V3.222h-.407c-.047 0-.047-.024-.047-.071v-.142c0-.048.024-.048.047-.048h1.123c.048 0 .072.024.072.048v.166c0 .047-.024.07-.072.07h-.406v1.256c0 .047-.024.07-.047.07h-.192c-.047-.047-.071-.047-.071-.094m2.317-1.54h.334c.048 0 .048.025.048.048v1.468c0 .048-.024.071-.048.071h-.19c-.048 0-.072-.023-.072-.07V3.34h-.025l-.31.71c-.024.048-.048.072-.072.072h-.215c-.024 0-.048-.024-.072-.071l-.31-.71h-.024v1.112c0 .048-.024.071-.048.071h-.191c-.048 0-.048-.023-.048-.07V3.008c0-.047.024-.047.072-.047h.334c.024 0 .048.023.072.047l.358.782h.024l.359-.782c-.024-.047-.024-.071.024-.071M49.316 18.21l-.24.07c-.525.19-1.098.38-1.385.711-.215.284-.239.782-.239 1.255v.403c0 .118.024.19.048.26.143.45.55.758 1.027.758H57.2c.454-.047.836-.403.931-.853l.024-.023c.048-1.824 0-3.694 0-5.517-2.962.97-5.877 1.965-8.84 2.936M42.245 3.932c.406-.9 1.075-1.586 1.887-2.083.86-.498 1.864-.758 2.867-.758h11.444c.812-.024 1.648.142 2.413.45.717.308 1.385.781 1.887 1.397s.813 1.35 1.004 2.084c.167.71.239 1.444.263 2.13v14.112c-.024.758-.12 1.563-.335 2.32-.263.805-.669 1.563-1.314 2.179-.62.592-1.385.97-2.198 1.207-.764.213-1.552.284-2.34.308h-9.127c-.884.024-1.816 0-2.724-.19-.98-.189-1.911-.591-2.675-1.301-.765-.71-1.195-1.61-1.41-2.558-.215-.876-.263-1.823-.239-2.675.024-.876.072-1.824.31-2.7.24-.947.67-1.847 1.41-2.58l.024-.024c1.314-1.255 2.963-1.847 4.564-2.392 1.337-.473 2.675-.9 4.013-1.326 2.055-.686 4.11-1.373 6.26-2.06V7.603c0-.592-.478-1.065-1.075-1.065h-8.53c-.597 0-1.074.473-1.074 1.065v3.268h-5.854V8.526c-.096-1.54-.12-3.102.549-4.594M89.357 18.21l-.24.07c-.525.19-1.098.38-1.385.711-.215.284-.239.782-.239 1.255v.403c0 .118.024.19.048.26.144.45.55.758 1.028.758h8.672c.454-.047.836-.403.932-.853l.023-.023c.048-1.824 0-3.694 0-5.517-2.962.97-5.9 1.965-8.84 2.936m-7.07-14.278c.405-.9 1.074-1.586 1.886-2.083.86-.498 1.864-.758 2.867-.758h11.444c.812-.024 1.649.142 2.413.45.717.308 1.362.781 1.888 1.397.501.616.812 1.35 1.003 2.084.167.71.239 1.444.263 2.13v14.112c-.024.758-.12 1.563-.335 2.32-.238.805-.669 1.563-1.314 2.179-.62.592-1.385.97-2.198 1.207-.764.213-1.552.284-2.34.308h-9.127c-.884.024-1.816 0-2.724-.19-.98-.189-1.91-.591-2.675-1.301-.765-.71-1.195-1.61-1.41-2.558-.215-.876-.263-1.823-.239-2.675.024-.876.072-1.824.31-2.7.24-.947.67-1.847 1.41-2.58l.024-.024c1.314-1.255 2.963-1.847 4.563-2.392 1.338-.473 2.676-.9 4.014-1.326 2.055-.686 4.11-1.373 6.26-2.06V7.603c0-.592-.478-1.065-1.076-1.065H88.57c-.597 0-1.075.473-1.075 1.065v3.268H81.64V8.526c-.025-1.54-.049-3.102.644-4.594M23.61 6.537v7.056h9.437c.693 0 1.242-.545 1.242-1.231v-.024c0-1.705.024-2.841 0-4.57v-.047c-.024-.663-.573-1.184-1.242-1.184h-9.437zm-5.877 15.438c-.836.023-1.672.023-2.508.023-2.796 0-5.52-.142-7.813-.473-2.27-.308-4.133-.805-5.28-1.468-.716-.426-1.122-.924-1.122-1.492 0-.308.286-.64.836-.947.573-.331 1.385-.663 2.413-.947v.189c.024 1.184 1.935 2.274 4.969 3.055 2.293.592 5.232 1.018 8.481 1.184v-5.47c-.884-.047-1.744-.095-2.58-.19-2.485-.213-4.754-.568-6.522-1.017-2.127-.545-3.512-1.232-3.656-1.99v-.26l.024-.142c1.577.426 3.512.758 5.639.994 2.102.237 4.42.332 6.832.308h.263V7.58h-.263c-4.61 0-8.815-.403-11.826-1.066C2.752 5.898.96 5.116.96 4.288c0-.83 1.792-1.634 4.683-2.25C8.653 1.375 12.834.973 17.47.973h16.723c1.339 0 3.083.426 4.11 1.326.669.544 1.099 1.23 1.41 1.989.334.876.477 1.823.477 2.723v6.06c-.024.759-.095 1.54-.31 2.274-.24.782-.621 1.54-1.219 2.131-.62.616-1.361 1.018-2.15 1.255-.74.236-1.553.331-2.317.355H23.657v8.192H16.394c-3.99-.118-7.358-.426-9.962-.994-2.437-.545-4.205-1.302-5.137-2.368-.096-.094-.167-.19-.239-.308-.024-.023-.048-.07-.048-.094-.024-.071-.048-.166-.048-.237 0-.758 0-1.563.024-2.32 0-.166.024-.332.024-.971.215.213.478.426.789.616.19.118.382.213.597.307v3.15c.382.284.86.544 1.433.781v-3.386c.621.19 1.338.355 2.103.497v3.576c.215.047.406.094.62.141.264.048.526.12.79.166v-3.646c.668.095 1.385.166 2.102.237v3.74c.454.048.932.12 1.433.167v-3.79c.693.048 1.386.072 2.103.096v3.883c.453.023.931.047 1.433.07v-3.93H16.513v3.93h1.195v-4.616h.024z"/>
</svg>
