<svg xmlns="http://www.w3.org/2000/svg" width="147" height="33" viewBox="0 0 147 33">
    <g fill="none" fill-rule="evenodd">
        <path fill="#EC1C24" d="M11.714 7.063L9.447 8.891 7.935 10.1v5.546l.781-.617v2.573l-.78.618v5.546l.78-.63v2.573l-.78.63v5.546l1.511-1.209 2.267-1.827 3.011-2.407V17.14c0-.386-.29-.798-.58-.991.479-.4.58-.824.58-1.287V4.657l-3.01 2.406zm1.94 14.13c0 .489-.188.708-.604 1.042l-1.336 1.068-1.927 1.558v-2.574l1.927-1.557 1.16-.913c.39-.322.78-.245.78.192v1.183zm0-8.12c0 .49-.188.708-.604 1.042l-1.336 1.068-1.927 1.556v-2.572l1.927-1.558 1.16-.914c.39-.322.78-.244.78.193v1.185zM10.946 6.045L10.946 4.065 9.447 5.289 9.007 5.648 9.007 3.576 9.447 3.216 10.946 1.981 10.946 0 9.447 1.234 7.935 2.47 7.935 8.518 9.447 7.283zM3.779 0L3.779 1.981 4.749 2.779 4.749 4.953 4.37 4.645 4.37 6.627 5.277 7.385 6.197 8.144 6.197 6.162 5.806 5.842 5.806 3.654 6.777 4.452 6.777 2.47 5.277 1.234zM0 4.657L0 10.203 5.277 14.449 5.908 14.951 5.277 15.595 4.497 16.38 0 12.778 0 18.323 1.435 19.468 0 20.897 0 26.443 5.277 30.676 6.777 31.885 6.777 26.339 5.277 25.13.881 21.592 2.306 20.163 5.277 22.556 6.777 23.766 6.777 18.22 5.366 17.075 6.777 15.646 6.777 10.1 5.277 8.891z" transform="translate(.111 .943)"/>
        <path fill="#231F20" fill-rule="nonzero" d="M33.337 22.045H25.68L33.261 9.61V7.444c0-.03-.015-.06-.06-.06H23.17c-.03 0-.045.014-.06.044l-.608 2.226c0 .015 0 .03.015.045.016.03.03.03.046.03h7.34l-7.75 12.542v2.09c0 .03.015.06.06.06h10.424c.03 0 .046-.015.06-.045l.7-2.24c0-.03 0-.046-.015-.06-.016-.016-.03-.03-.046-.03zM36.33 7.263c-1.048 0-1.868.827-1.868 1.88 0 1.022.82 1.85 1.823 1.85 1.033 0 1.884-.828 1.884-1.85 0-1.038-.82-1.88-1.838-1.88zM37.668 11.609h-.016l-2.735.496c-.03 0-.06.03-.06.06v12.196c0 .03.03.06.06.06h2.75c.031 0 .061-.03.061-.06V11.669c0-.015-.015-.03-.015-.045-.015-.015-.03-.015-.045-.015zM74.104 22.481c0-.015-.015-.015-.03-.015h-.015c-.486.18-.79.241-1.14.241-1.154 0-1.474-.406-1.474-1.91v-7.203h2.234c.03 0 .06-.015.06-.045l.715-1.85c.015-.03.015-.045 0-.06s-.03-.03-.06-.03h-2.918V8.271c0-.015-.015-.03-.03-.045 0-.015-.016-.015-.031-.015H71.4l-2.69.466c-.03.015-.06.045-.06.075v2.857h-1.322c-.03 0-.061.03-.061.06v1.865c0 .03.03.06.06.06h1.323v7.91c0 1.474.577 3.233 3.327 3.233.851 0 1.656-.165 2.477-.541.03-.015.03-.045.03-.06l-.35-1.624c0-.015-.014-.03-.03-.03zM52.634 21.459c-.547.782-1.367 1.248-2.188 1.248-1.033 0-1.656-.692-1.656-1.835 0-1.383.593-2.286 3.464-2.286.137 0 .304 0 .38.015v2.858zm2.675-7.76c-.563-1.368-1.9-2.09-3.875-2.09-1.276 0-2.431.24-3.616.767-.016.015-.03.03-.03.045l-.487 2.602c0 .015 0 .045.03.06.016 0 .016.015.03.015.016 0 .031-.015.046-.015.016-.015 1.885-1.399 3.662-1.399 1.413 0 1.672.692 1.672 2.12v.843h-.775c-4.088 0-6.245 1.503-6.245 4.36 0 2.407 1.534 3.79 4.209 3.79 1.094 0 1.96-.27 2.72-.842v.767c0 .045.03.075.06.075h2.735c.03 0 .061-.03.061-.075v-7.97c.03-1.88.015-2.511-.197-3.053zM63.514 21.459c-.562.782-1.368 1.248-2.188 1.248-1.049 0-1.672-.692-1.672-1.835 0-1.383.593-2.286 3.465-2.286.136 0 .304 0 .395.015v2.858zm2.659-7.76c-.547-1.368-1.884-2.09-3.86-2.09-1.291 0-2.43.24-3.616.767l-.046.045-.501 2.857c0 .03 0 .045.03.06.01.01.02.015.03.015.016 0 .031 0 .046-.015.016-.015 1.9-1.398 3.677-1.398 1.429 0 1.672.676 1.672 2.105v.602h-.775c-4.087 0-6.245 1.503-6.245 4.36 0 2.407 1.535 3.79 4.224 3.79 1.079 0 1.945-.27 2.705-.842v.767c0 .045.03.075.06.075h2.736c.03 0 .06-.03.06-.075v-7.97c.03-1.88.03-2.511-.197-3.053zM46.025 14.797h.015c.015 0 .03 0 .03-.015.03 0 .03-.015.046-.045l.47-2.542c0-.03-.014-.045-.045-.06-.288-.135-.547-.18-.927-.18-1.17 0-2.142.571-3.13 1.85v-2.136c0-.015 0-.03-.015-.045s-.03-.015-.045-.015h-.016l-2.507.436c-.03.015-.06.03-.06.06v12.256c0 .03.03.06.06.06h2.72c.03 0 .06-.03.06-.06v-8.075c.26-1.023 1.232-1.79 2.295-1.79.243 0 .669.15.942.256l.107.045zM87.187 21.895c-.699.616-1.701.691-2.492.691h-3.57v-6.18h2.947c.973 0 2.097 0 2.903.602.41.315 1.094 1.067 1.094 2.631 0 1.293-.547 1.97-.882 2.256zM81.125 9.098h2.81c.745 0 1.58.045 2.31.631.623.512.973 1.309.973 2.166 0 .827-.32 1.609-.851 2.075-.745.647-1.748.647-2.234.647h-3.008v-5.52zm7.643 7.067c-.532-.39-1.262-.706-2.021-.857.82-.285 1.352-.676 1.671-.977.988-.887 1.2-1.97 1.2-2.707 0-1.323-.683-2.571-1.823-3.353-1.413-.948-3.16-.948-4.695-.948h-4.011c-.046 0-.061.03-.061.06v16.918c0 .045.015.06.06.06h4.407c2.431 0 4.133-.09 5.47-1.338.881-.797 1.368-2.03 1.368-3.354 0-1.474-.563-2.752-1.565-3.504zM107.746 11.684c-.7 0-1.398.18-2.112.556-.639.316-1.216.737-1.733 1.263V11.7c0-.015 0-.03-.015-.045s-.03-.015-.045-.015h-.016l-1.914.33c-.03.016-.06.03-.06.06V24.3c0 .046.03.06.075.06h1.945c.03 0 .06-.014.06-.06v-9.127c.441-.452.943-.813 1.581-1.143.669-.361 1.292-.542 1.793-.542.532 0 1.033.18 1.322.497.44.48.44 1.203.425 1.894V24.3c0 .046.03.06.076.06h1.945c.03 0 .061-.014.061-.06v-9.323c0-.33 0-.767-.304-1.459-.395-.842-1.443-1.834-3.084-1.834zM117.182 17.353l5.12-5.609c.016-.015.03-.045.015-.075-.015-.015-.03-.03-.06-.03h-2.447c-.015 0-.03 0-.045.015l-4.969 5.61v-9.88c0-.016-.015-.03-.03-.046 0-.015-.015-.015-.03-.015h-.016l-1.945.346c-.03 0-.045.03-.045.06v16.572c0 .045.03.06.06.06h1.945c.03 0 .061-.015.061-.06v-6.872l5.668 6.917c.015.015.03.015.045.015h2.599c.015 0 .045-.015.06-.03 0-.015 0-.045-.015-.06l-5.971-6.918zM98.279 21.248c-.73 1.368-2.021 1.864-2.978 1.864-.623 0-1.17-.195-1.535-.556-.243-.24-.517-.707-.517-1.609 0-.857.244-1.504.745-1.97.82-.782 2.492-.902 3.419-.902.258 0 .47 0 .668.03l.198.015v3.128zm-1.687-9.61c-.911 0-1.853.151-2.704.452-.35.12-.715.27-1.11.45-.015.016-.03.031-.03.046l-.38 2.135c0 .03.015.06.03.06.01.01.02.016.03.016.016 0 .031 0 .046-.015.532-.406 1.064-.707 1.717-.978.304-.105 1.231-.466 2.204-.466.486 0 1.109.075 1.565.601.41.467.44.948.44 1.444v1.278c-.243-.015-.486-.015-.79-.015-1.413 0-3.403.196-4.862 1.143-1.2.797-1.793 1.925-1.793 3.338 0 2.211 1.504 3.534 4.042 3.534.805 0 2.006-.135 3.312-1.323v1.263c0 .03.015.06.061.06h1.9c.03 0 .06-.03.06-.06v-8.827-.36c.015-.602.03-1.264-.167-1.805-.273-.737-1.094-1.97-3.57-1.97z" transform="translate(.111 .943)"/>
        <path fill="#231F20" fill-rule="nonzero" d="M130.082 21.248c-.73 1.368-2.006 1.864-2.978 1.864-.623 0-1.17-.195-1.52-.556-.243-.24-.531-.707-.531-1.609 0-.857.243-1.504.744-1.97.82-.782 2.492-.902 3.419-.902.258 0 .47 0 .668.03l.198.015v3.128zm-1.687-9.61c-.911 0-1.853.151-2.704.452-.35.12-.714.27-1.094.45-.03.016-.046.031-.046.046l-.38 2.135c0 .03.015.06.03.06.016.016.031.016.031.016.015 0 .03 0 .046-.015.531-.406 1.063-.707 1.732-.978.304-.105 1.23-.466 2.188-.466.486 0 1.109.075 1.58.601.395.467.426.948.426 1.444v1.278c-.228-.015-.487-.015-.775-.015-1.429 0-3.42.196-4.878 1.143-1.185.797-1.793 1.925-1.793 3.338 0 2.211 1.504 3.534 4.042 3.534.805 0 2.006-.135 3.312-1.323v1.263c0 .03.03.06.061.06h1.9c.045 0 .075-.03.075-.06v-8.827-.36c0-.602.016-1.264-.182-1.805-.258-.737-1.079-1.97-3.57-1.97zM139.533 17.233l-1.61-.376c-1.277-.286-1.809-.782-1.809-1.715 0-1.142.897-1.91 2.219-1.91.896 0 1.747.241 2.963.828.015.015.03.015.03.015h.03c.016-.015.016-.03.03-.045l.67-1.369c0-.03 0-.06-.031-.075-1.094-.617-2.431-.947-3.784-.947-2.643 0-4.421 1.518-4.421 3.76 0 1.804 1.033 2.962 2.963 3.352l1.52.301c1.458.27 2.126.903 2.126 2 0 1.218-.942 2.045-2.355 2.045-1.17 0-2.492-.39-3.92-1.173h-.046c-.015 0-.03.016-.03.03l-.714 1.399c-.015.03 0 .06.03.075 1.398.782 3.024 1.233 4.498 1.233 2.887 0 4.817-1.624 4.817-4.06 0-1.73-1.094-2.902-3.176-3.368zM145.748 11.654c-.01-.01-.02-.015-.03-.015h-.016l-1.945.33c-.03.016-.06.03-.06.06V24.3c0 .046.03.06.075.06h1.945c.03 0 .061-.014.061-.06V11.7c0-.015-.015-.03-.03-.045z" transform="translate(.111 .943)"/>
    </g>
</svg>
