<svg xmlns="http://www.w3.org/2000/svg" width="143" height="38" viewBox="0 0 143 38">
    <g fill="#D1232A" fill-rule="evenodd">
        <path d="M0 5.645h18.05c-4.795 3.278-7.966 8.96-7.966 15.419 0 6.458 3.172 12.14 7.967 15.417H0V5.645z" transform="translate(.889 .4)"/>
        <path d="M30.51 34.633c-8.733-.971-15.527-8.354-15.527-17.316S21.777.972 30.51 0v34.633zM128.586 10.484L130.531 10.484 130.531 19.777 139.144 10.481 141.622 10.481 132.751 20.194 141.622 29.907 139.144 29.907 130.531 20.611 130.531 29.872 128.586 29.872zM106.033 10.467L106.033 29.87 108.021 29.87 108.021 15.35 122.527 29.804 122.527 10.532 120.605 10.532 120.605 25.515zM91.772 13.92l-2.491 5.669h5.103l-2.491-5.669h-.12zm-3.28 7.44l-4.132 8.443h-2.066l9.539-19.248 9.538 19.248h-2.065l-4.132-8.443h-6.683zM69.199 20.828c5.451-.229 6.94 2.221 6.966 4.225.02 1.644-1.265 3.15-3.898 3.303H69.2v-7.528zm0-8.65h3.377c5.035.067 4.174 7.011-.339 6.909H69.2v-6.908zm-1.858-1.693h5.813c2.975.002 4.74 2.098 4.833 4.323.11 2.52-1.375 5.207-3.87 5.2 5.946.51 6.36 9.777-1.54 9.913h-4.263v-.05h-.973V10.486zM56.7 21.09L62.48 21.09 62.48 19.152 56.7 19.152zM53.667 10.484L53.667 12.423 48.174 12.423 48.174 29.872 46.228 29.872 46.228 12.423 40.735 12.423 40.735 10.484 46.228 10.484 48.174 10.484z" transform="translate(.889 .4)"/>
    </g>
</svg>
