<svg xmlns="http://www.w3.org/2000/svg" width="153" height="51" viewBox="0 0 153 51">
    <g fill="none" fill-rule="evenodd">
        <path fill="#161519" d="M0 11.506c1.633 0 3.266.01 4.9-.008.385-.005.486.12.486.494-.01 8.633-.01 17.266 0 25.9 0 .373-.1.498-.487.494-1.633-.02-3.266-.008-4.899-.008V11.506zM82.048 38.378c-1.371 0-2.743.04-4.112-.01-2.048-.073-4.081-.29-6.023-1.006-1.305-.48-2.476-1.17-3.516-2.11-2.328-2.105-3.503-4.761-3.94-7.81-.191-1.332-.221-2.672-.124-3.999.193-2.65 1.086-5.06 2.741-7.181 1.06-1.359 2.328-2.45 3.872-3.205 1.483-.726 3.066-1.126 4.708-1.322 3.609-.43 7.231-.144 10.847-.231.285-.007.358.118.357.377-.007 1.457-.014 2.915.003 4.372.004.384-.211.377-.48.376-2.675-.003-5.352-.054-8.025.015-2.303.059-4.506.563-6.369 2.035-1.161.919-1.882 2.135-2.257 3.552-.57 2.15-.465 4.283.392 6.334.771 1.845 2.194 3.07 4.044 3.799 1.24.49 2.534.737 3.867.817 2.75.164 5.503.029 8.255.074.565.009.567.003.567.558 0 1.352-.013 2.705.008 4.057.006.388-.096.524-.506.517-1.436-.024-2.873-.01-4.31-.01M27.248 38.141c-1.24 0-2.479.03-3.717-.006-2.596-.074-5.125-.502-7.434-1.755-2.537-1.377-4.443-3.353-5.495-6.075-.59-1.528-.824-3.118-.886-4.752-.057-1.498.032-2.971.41-4.422.492-1.89 1.384-3.567 2.648-5.065 1.851-2.194 4.238-3.403 7.02-3.938 1.227-.236 2.461-.337 3.709-.4 2.634-.133 5.267-.014 7.9-.07.346-.007.489.08.483.457-.02 1.405-.02 2.81 0 4.215.005.371-.128.463-.479.461-2.28-.012-4.56-.016-6.84-.002-1.675.01-3.324.211-4.909.785-2.654.962-4.276 2.776-4.72 5.603-.245 1.554-.172 3.076.298 4.57.647 2.05 2.02 3.455 3.992 4.283 1.329.56 2.725.827 4.164.915 2.633.16 5.267.03 7.9.073.585.01.586.003.586.578 0 1.353-.011 2.706.008 4.058.005.372-.099.501-.486.495-1.384-.02-2.768-.008-4.152-.008" transform="translate(.556 .314)"/>
        <path fill="#B3252D" d="M126.756 46c-6.005-.067-11.118-2.392-15.196-6.791-4.01-4.327-5.857-9.5-5.547-15.374.295-5.597 2.564-10.349 6.65-14.18 4.027-3.774 8.888-5.706 14.396-5.683 6.158.028 11.415 2.36 15.585 6.905 3.65 3.978 5.427 8.728 5.518 13.833-.073 11.868-9.438 21.423-21.406 21.29m-.213 3.677c-7.087-.079-13.12-2.822-17.932-8.014-4.733-5.106-6.912-11.21-6.546-18.144.348-6.605 3.026-12.212 7.848-16.733C114.664 2.33 120.4.05 126.901.079c7.267.032 13.47 2.783 18.391 8.148 4.307 4.695 6.404 10.3 6.511 16.325-.086 14.006-11.137 25.282-25.26 25.125" transform="translate(.556 .314)"/>
        <path fill="#161519" d="M55.907 30.782c-.211 1.553-1.053 2.313-2.626 2.478-1.524.16-3.052.031-4.577.073-.33.01-.66.001-.989.001-1.673 0-3.347-.007-5.02.006-.335.003-.464-.083-.46-.44.015-1.812.015-3.624 0-5.436-.004-.357.126-.44.46-.44 3.097.01 6.194-.02 9.29.02 1.118.015 2.196.318 3.031 1.123.734.707 1.027 1.615.89 2.615M42.69 16.464c2.755.012 5.51-.016 8.265.02.802.012 1.625.043 2.38.425.813.41 1.203 1.07 1.336 1.946.069.451.06.89-.058 1.315-.25.903-.897 1.413-1.778 1.66-.61.17-1.23.248-1.867.24-1.292-.016-2.584-.005-3.876-.005-1.463 0-2.926-.01-4.39.007-.367.005-.47-.119-.466-.473.015-1.563.016-3.126 0-4.689-.004-.349.111-.447.454-.446M60.958 29.13c-.251-1.316-.851-2.458-1.847-3.389-.545-.509-1.183-.859-1.9-1.236.226-.153.399-.267.568-.386.86-.6 1.445-1.414 1.75-2.402.42-1.352.505-2.74.276-4.138-.295-1.795-1.153-3.253-2.629-4.349-1.636-1.216-3.527-1.684-5.505-1.706-4.705-.054-9.41-.018-14.116-.017-.532 0-.534.002-.534.55v25.763c0 .557.001.559.565.559 4.468 0 8.936.004 13.404-.004.775-.001 1.548.006 2.326-.057 1.268-.102 2.5-.332 3.663-.832 1.792-.77 3.1-2.02 3.734-3.91.492-1.463.53-2.951.245-4.446" transform="translate(.556 .314)"/>
        <path fill="#B3252D" d="M119.843 38.378c-1.938 0-3.876-.008-5.814.007-.35.003-.445-.103-.444-.446.012-3.546.013-7.092 0-10.638-.002-.36.122-.437.455-.435 2.254.012 4.509 0 6.763.014.357.002.479-.094.47-.461-.024-.972-.02-1.944-.001-2.916.006-.332-.108-.42-.43-.42-2.255.012-4.51-.001-6.763.015-.371.002-.497-.086-.495-.477.014-3.546.014-7.092 0-10.638-.001-.379.103-.487.486-.486 3.876.014 7.752.014 11.628 0 .39-.001.489.12.48.492-.024.984-.026 1.97 0 2.955.01.388-.09.515-.501.511-2.544-.019-5.089 0-7.633-.018-.403-.003-.518.11-.506.507.029.905.033 1.813 0 2.718-.016.418.134.498.517.495 2.228-.016 4.456.001 6.684-.015.377-.003.491.097.49.481-.015 3.546-.015 7.092 0 10.638.001.386-.115.484-.491.48-2.241-.015-4.483 0-6.724-.014-.349-.002-.485.08-.475.456.025.971.02 1.944.002 2.915-.006.326.096.426.425.425 2.57-.012 5.141.003 7.712-.016.413-.003.51.126.5.513-.026.958-.025 1.917 0 2.876.01.373-.093.494-.482.49-1.95-.018-3.902-.008-5.853-.008M134.345 11.506c1.924 0 3.85.007 5.774-.007.334-.002.456.076.455.436-.013 3.572-.012 7.144 0 10.716 0 .345-.096.448-.446.446-2.254-.014-4.508.002-6.762-.016-.39-.003-.49.12-.48.492.024.945.027 1.892-.002 2.836-.013.403.14.473.502.47 2.228-.014 4.456.004 6.684-.016.403-.003.507.112.505.507-.015 3.533-.014 7.066-.001 10.6 0 .364-.08.497-.475.495-3.85-.014-7.7-.013-11.549 0-.376 0-.5-.095-.49-.481.025-1.011.023-2.023 0-3.034-.008-.353.11-.442.45-.44 2.558.012 5.116 0 7.673.014.384.003.532-.08.517-.496-.032-.957-.022-1.917-.003-2.875.006-.326-.096-.427-.425-.425-2.28.012-4.561-.005-6.842.016-.413.003-.501-.127-.5-.513.014-3.507.014-7.013 0-10.52-.001-.372.09-.494.48-.491 2.268.018 4.536 0 6.803.017.384.003.496-.108.486-.487-.026-.945-.028-1.891 0-2.836.012-.393-.127-.478-.496-.476-2.545.015-5.089 0-7.633.016-.394.003-.523-.095-.512-.501.03-1.01.022-2.023.004-3.034-.007-.332.107-.421.43-.42 1.95.013 3.902.007 5.853.007" transform="translate(.556 .314)"/>
    </g>
</svg>
