<svg xmlns="http://www.w3.org/2000/svg" width="136" height="42" viewBox="0 0 136 42">
    <g fill="none">
        <path fill="#818181" d="M17.404.281c1.8-.374 3.656-.374 5.455 0v8.074l6.135-6.21c1.775.798 3.36 1.973 4.82 3.267-3.805 3.823-7.58 7.675-11.378 11.505-1.352 1.286-3.477 1.22-4.747-.148-3.74-3.778-7.486-7.556-11.226-11.372 1.476-1.256 3.039-2.447 4.82-3.253l6.128 6.211V.281h-.007zm.767.665v9.257c-2.374-2.35-4.704-4.732-7.055-7.098-1.264.638-2.444 1.433-3.513 2.366 3.52 3.579 7.062 7.15 10.59 10.721.487.544 1.175.859 1.9.87.725.011 1.423-.282 1.926-.81 3.491-3.55 6.939-7.135 10.48-10.633.074-.051.132-.185.037-.244-1.04-.863-2.165-1.614-3.36-2.24-2.132 2.159-4.294 4.303-6.44 6.455-.213.214-.402.443-.636.62-.015-3.09 0-6.18-.008-9.271-1.301-.216-2.629-.21-3.929.015l.008-.008zM5.36 6.506c3.797 3.823 7.573 7.66 11.364 11.498 1.234 1.22 1.241 3.423.029 4.658L5.375 34.212c-1.305-1.456-2.389-3.101-3.213-4.88l6.12-6.204H.314c-.11-.592-.234-1.183-.234-1.79v-2.003c0-.592.132-1.161.22-1.73h7.982l-6.128-6.211c.834-1.773 1.914-3.416 3.207-4.88v-.007zm-2.257 4.688l.007.067c2.337 2.366 4.682 4.732 7.011 7.113H6.39c-1.212.096-2.432-.067-3.651.03-.592 0-1.19-.075-1.79 0-.212 1.304-.21 2.636.008 3.94h9.18c-2.337 2.396-4.696 4.769-7.048 7.15.634 1.279 1.424 2.471 2.352 3.549l10.407-10.536c.398-.338.706-.77.898-1.257.14-.348.095-.725.103-1.087-.006-.661-.29-1.288-.782-1.723-3.556-3.586-7.084-7.187-10.648-10.765-.902 1.078-1.676 2.26-2.308 3.52h-.007zm28.308-1.146c1.168-1.175 2.315-2.366 3.505-3.527 1.242 1.494 2.417 3.076 3.199 4.88-2.045 2.056-4.09 4.133-6.128 6.196h7.976c.37 1.825.37 3.706 0 5.53H31.98l6.135 6.212c-.835 1.767-1.915 3.405-3.206 4.865-3.593-3.609-7.157-7.246-10.743-10.87-.519-.517-1.089-1.034-1.33-1.752-.467-1.237-.182-2.636.73-3.586 2.608-2.654 5.23-5.3 7.845-7.948zm-7.26 8.451c-.727.727-.964 1.819-.606 2.788.197.599.694 1.02 1.125 1.456 3.396 3.431 6.77 6.877 10.173 10.3.925-1.078 1.71-2.27 2.337-3.55-2.337-2.38-4.703-4.753-7.04-7.142 3.06 0 6.12 0 9.18-.014.215-1.307.215-2.642 0-3.949-1.497-.037-2.987.015-4.484.015-1.563-.059-3.126 0-4.696-.037l7.033-7.12c-.07-.199-.161-.39-.27-.57-.587-1.067-1.274-2.075-2.053-3.009-3.578 3.601-7.135 7.224-10.699 10.832zm-6.427 5.405c.615-.647 1.458-1.02 2.345-1.037.886-.016 1.743.325 2.38.948 3.79 3.83 7.567 7.668 11.364 11.49-1.439 1.32-3.063 2.417-4.82 3.254l-6.135-6.196v8.074c-1.8.377-3.656.377-5.455 0v-8.082l-6.135 6.204c-1.749-.844-3.368-1.94-4.806-3.254 3.74-3.807 7.508-7.6 11.262-11.408v.007zm1.417-.059c-.436.196-.823.49-1.132.858L7.77 35.069c-.054.064-.109.13-.16.2 1.096.894 2.242 1.73 3.506 2.35 2.359-2.38 4.703-4.768 7.07-7.142v9.302c1.281.213 2.589.21 3.87-.008l.036-.037c.037-.85-.043-1.693-.029-2.536.015-.946-.022-1.893.03-2.84v-3.873c1.533 1.53 3.045 3.068 4.557 4.599.847.842 1.665 1.715 2.527 2.536 1.246-.656 2.417-1.45 3.49-2.366-3.52-3.586-7.069-7.15-10.59-10.736-.438-.52-1.077-.821-1.752-.828-.394 0-.818-.037-1.183.148v.007z" transform="translate(.444 .629)"/>
        <path fill="#A42350" d="M18.163.946c1.3-.23 2.628-.235 3.93-.014.014 3.09-.008 6.18.007 9.271.234-.184.423-.414.635-.62 2.147-2.152 4.31-4.289 6.442-6.455 1.194.626 2.318 1.377 3.36 2.24.094.059.043.192-.045.244-3.534 3.497-6.982 7.083-10.473 10.632-.505.536-1.21.834-1.942.82-.72-.018-1.402-.337-1.884-.879-3.528-3.579-7.07-7.142-10.59-10.721 1.08-.917 2.235-1.752 3.505-2.366 2.36 2.366 4.689 4.754 7.055 7.113V.946z" transform="translate(.444 .629)"/>
        <g fill="#031B3C">
            <path d="M4.748 2.183C7.202.43 10.393-.065 13.3.483c1.815.343 3.505 1.175 4.893 2.41 2.293 2.048 3.52 5.153 3.542 8.222.073 2.802-.885 5.532-2.687 7.66-.066.074-.176.184-.052.258.877.902 1.76 1.79 2.63 2.7-.576.494-1.28.812-2.03.909-.658.055-1.317-.106-1.878-.459-.525-.31-.898-.813-1.336-1.235-1.53.847-3.238 1.309-4.981 1.346-1.815.08-3.621-.296-5.258-1.094-2.427-1.207-4.282-3.34-5.157-5.93-1.034-3.002-.861-6.295.483-9.168.749-1.568 1.88-2.917 3.286-3.92h-.007zm2.315 2.285c-1.23.932-2.134 2.237-2.578 3.726-.538 1.739-.611 3.591-.212 5.368.252 1.188.767 2.303 1.504 3.26.891 1.157 2.142 1.976 3.55 2.322 1.61.405 3.309.221 4.798-.517-1.278-1.339-2.57-2.662-3.856-3.993.613-.494 1.359-.787 2.14-.843.986-.018 1.932.403 2.585 1.154.511.51 1 1.057 1.534 1.552.439-.651.788-1.36 1.037-2.107.571-1.848.62-3.819.146-5.693-.349-1.463-1.12-2.789-2.213-3.808-2.393-2.06-5.856-2.23-8.435-.414v-.007zm17.55 17.25V.777h2.023c.964.013 1.884.415 2.556 1.117L39.76 15.839V.78h3.337v20.938h-1.964c-.306.01-.61-.038-.899-.14-.474-.17-.788-.592-1.117-.954L27.994 6.146V21.71h-3.381v.007zM46.588.777h11.43c1.665 0 3.338.643 4.528 1.826 1.019.976 1.625 2.315 1.687 3.734.01 1.34-.51 2.63-1.446 3.579-.27.318-.602.578-.971.769-.183.103-.417.148-.533.34.51.163 1.022.288 1.49.547.803.42 1.462 1.07 1.898 1.87.743 1.546.696 3.36-.124 4.866-.572 1.11-1.463 2.017-2.556 2.602-1.048.544-2.212.819-3.389.799H46.588V.778zm3.52 2.987v14.832h8.494c.814.018 1.598-.31 2.162-.904.563-.595.855-1.401.803-2.223.015-.71-.416-1.36-.964-1.775-.489-.39-1.054-.673-1.657-.828-.629-.163-1.271-.118-1.914-.126h-3.396c-.664.005-1.29-.314-1.68-.857-.44-.669-.657-1.461-.62-2.263h6.353c.913-.005 1.771-.445 2.315-1.19.51-.732.694-1.645.512-2.522-.165-.8-.681-1.48-1.403-1.848-.466-.234-.985-.336-1.504-.296h-7.5zM1.149 26.412h10.86c.014.51.036 1.087-.337 1.48-.387.465-1.037.48-1.585.458H3.382v3.615h5.339v1.937H3.389v5.56H1.125c.008-4.355-.022-8.702.015-13.05h.007zm43.359 2.928c1.245-.316 2.558-.212 3.74.296.4.207.817.503.949.961.11.444-.095.88-.336 1.235-.339-.298-.714-.549-1.118-.747-.75-.354-1.595-.445-2.403-.259-.365.09-.737.289-.912.644-.246.46-.15 1.03.233 1.382.49.4 1.11.555 1.695.74.854.258 1.752.495 2.446 1.109 1.06.931 1.074 2.735.16 3.778-.778.843-1.868 1.32-3.008 1.316-.207-.007-.414-.007-.62 0-1.286-.05-2.51-.567-3.448-1.456l1.095-1.324c.698.664 1.596 1.067 2.55 1.146.538.032 1.077-.083 1.555-.333.38-.21.6-.628.562-1.064-.036-.503-.416-.91-.832-1.139-.636-.414-1.417-.458-2.11-.725-.855-.303-1.768-.769-2.17-1.634-.345-.822-.318-1.757.073-2.558.422-.697 1.109-1.19 1.899-1.36v-.008z" transform="translate(.444 .629) translate(46.646 .996)"/>
            <path d="M10.225 29.444h1.782v10.018c-.752.082-1.643-.384-1.775-1.183-.014-2.95 0-5.892-.007-8.835zm3.163 0c.693.015 1.416-.074 2.08.2.246.09.457.255.607.473l4.046 6.344v-7.017h1.687v10.018c-.401-.014-.81.023-1.212-.022-.358-.03-.636-.296-.825-.577-1.512-2.292-3.039-4.554-4.543-6.846-.015 2.484 0 4.961 0 7.445h-1.819c-.043-.221-.021-.45-.021-.68v-9.338zm9.172 10.055c1.257-3.356 2.49-6.728 3.82-10.055h1.928c1.322 3.327 2.564 6.699 3.827 10.055h-1.198c-.472.013-.898-.286-1.051-.739l-.745-1.996h-3.754l-1.03 2.735h-1.804.007zm4.726-7.74l-1.308 3.415h2.557c-.41-1.139-.848-2.27-1.242-3.416h-.007zm5.411-2.315c.73.015 1.49-.074 2.17.244.237.109.432.29.562.517l3.995 6.248v-7.01h1.687v10.02c-.438-.015-.877.036-1.315-.038-.305-.09-.565-.294-.73-.569-1.512-2.285-3.038-4.554-4.543-6.84-.014 2.478 0 4.962 0 7.446h-1.826c-.036-2.735-.014-5.486-.021-8.222-.008-.598.036-1.197.021-1.796zm17.696 0h4.149c.635.015 1.285-.052 1.898.148.957.295 1.775 1.13 1.965 2.144.177 1.086-.394 2.156-1.388 2.602.73.178 1.461.629 1.724 1.383.511 1.309-.263 2.884-1.512 3.423-.584.255-1.22.364-1.855.318h-4.98V29.444zm1.68 1.427v7.098h3.63c.247.011.493-.04.716-.148.628-.318.97-1.183.628-1.826-.35-.497-.91-.8-1.512-.821-.606-.022-1.212 0-1.826-.015-.345-.002-.663-.191-.833-.495-.16-.302-.246-.64-.248-.984.95-.022 1.899.015 2.841-.014.855-.06 1.439-1.028 1.198-1.834-.147-.559-.642-.95-1.212-.961h-3.382zm10.612-1.427h1.92c1.33 3.327 2.564 6.699 3.828 10.055h-1.227c-.382-.003-.735-.204-.935-.532-.292-.74-.54-1.486-.847-2.218-1.242.007-2.484.015-3.718 0-.38.902-.694 1.834-1.044 2.743h-1.804c1.256-3.357 2.498-6.721 3.827-10.048zm-.402 5.723c.847.022 1.702.022 2.556 0-.438-1.132-.832-2.27-1.256-3.402l-1.307 3.402h.007zm6.792-5.723c.877.022 1.914-.133 2.593.547 1.387 2.144 2.753 4.31 4.14 6.462v-7.01h1.688v10.02c-.577-.06-1.27.162-1.753-.274-.204-.163-.329-.4-.475-.606l-4.367-6.566v7.445h-1.826V29.444zm9.743 0h1.855v4.599l4.163-4.6h2.293c-1.117 1.25-2.25 2.493-3.374 3.735l3.783 6.284c-.55.247-1.17.286-1.746.111-.19-.066-.416-.11-.51-.295-.95-1.553-1.885-3.113-2.82-4.666l-1.79 1.974v2.876h-1.876c.014-3.342-.022-6.684.022-10.018z" transform="translate(.444 .629) translate(46.646 .996)"/>
        </g>
        <path fill="#0C477B" d="M3.104 11.187c.613-1.272 1.424-2.433 2.308-3.52 3.564 3.579 7.091 7.18 10.64 10.766.46.443.819 1.057.79 1.722-.015.363.036.74-.103 1.087-.193.487-.502.919-.898 1.257L5.434 33.05c-.928-1.078-1.719-2.27-2.352-3.549l7.048-7.15c-3.068 0-6.12-.014-9.18-.007-.215-1.307-.215-2.641 0-3.948.584-.067 1.19.015 1.781.007 1.22-.096 2.432.067 3.652-.022h3.74c-2.33-2.38-4.675-4.747-7.012-7.12l-.007-.074zm21.048 7.305c3.564-3.608 7.12-7.224 10.692-10.825.774.932 1.475 1.938 2.06 3.002.102.185.204.37.27.57l-7.033 7.12c1.563.03 3.133-.022 4.696.044 1.497-.007 2.994-.052 4.477-.022.215 1.307.215 2.641 0 3.948l-9.173.015c2.337 2.388 4.696 4.762 7.04 7.142-.627 1.28-1.412 2.472-2.337 3.55-3.403-3.416-6.777-6.87-10.18-10.3-.424-.444-.921-.85-1.118-1.457-.358-.969-.121-2.06.606-2.787zm-5.01 5.353c.365-.192.789-.148 1.183-.155.674.007 1.31.308 1.746.828 3.527 3.586 7.07 7.15 10.597 10.736-1.074.916-2.246 1.711-3.491 2.366-.87-.821-1.68-1.701-2.527-2.536-1.52-1.531-3.031-3.069-4.558-4.592v3.867c-.058.946-.014 1.9-.029 2.847-.014.842.059 1.685.03 2.528l-.037.037c-1.281.217-2.589.22-3.87.008v-9.302c-2.367 2.374-4.719 4.762-7.07 7.143-1.256-.641-2.433-1.43-3.506-2.352.05-.066.1-.129.153-.192l10.247-10.38c.309-.37.694-.662 1.132-.858v.007z" transform="translate(.444 .629)"/>
    </g>
</svg>
