<svg xmlns="http://www.w3.org/2000/svg" width="146" height="30" viewBox="0 0 146 30">
    <g fill="#005596" fill-rule="evenodd">
        <path d="M38.667 14.571v1.334c0 1.295-.015 2.45-.047 3.464-.03.998-.078 1.981-.14 2.948.266-.032.555-.047.868-.047h2.114c.313 0 .603.015.869.047-.063-.967-.11-1.95-.14-2.948-.032-1.014-.048-2.169-.048-3.464v-3.182c0-1.295.016-2.442.047-3.44.032-1.014.078-2.028.14-3.043-.265.032-.555.063-.868.094-.313.016-.666.024-1.057.024-.391 0-.743-.008-1.057-.024-.313-.031-.602-.062-.869-.094.063 1.015.11 2.02.141 3.019.032.983.047 2.122.047 3.417l-1.48.047H32.985c-.564-.016-1.05-.032-1.456-.047 0-1.295.008-2.434.023-3.417.032-.998.086-2.004.165-3.019-.267.032-.556.063-.87.094-.312.016-.665.024-1.056.024s-.743-.008-1.057-.024c-.313-.031-.603-.062-.869-.094.063 1.015.11 2.029.141 3.042.032 1 .047 2.146.047 3.441v3.182c0 1.295-.015 2.45-.047 3.464-.03.998-.078 1.981-.14 2.948.265-.032.555-.047.868-.047h2.114c.313 0 .602.015.87.047-.064-.967-.11-1.95-.142-2.948-.031-1.014-.047-2.169-.047-3.464v-1.334c.595-.03 1.19-.054 1.785-.07.595-.016 1.19-.023 1.785-.023s1.19.016 1.785.047l1.784.046M58.982 22.317c-.376-.032-.736-.047-1.08-.047H55.905c-.328 0-.657.015-.986.047-.25-.764-.508-1.544-.775-2.34-.266-.795-.547-1.59-.845-2.387-.501-.015-1.002-.023-1.503-.023-.501-.016-1.003-.024-1.504-.024-.406 0-.814.008-1.22.024-.408 0-.815.008-1.222.023-.313.796-.603 1.592-.869 2.387-.265.796-.508 1.576-.728 2.34-.188-.032-.376-.047-.563-.047h-1.104c-.188 0-.392.015-.61.047.187-.405.438-.967.751-1.685.313-.717.657-1.529 1.033-2.433.376-.905.775-1.872 1.198-2.902.438-1.046.869-2.099 1.292-3.16.438-1.06.86-2.105 1.268-3.135.422-1.03.806-1.99 1.15-2.879.157.032.306.062.447.094.14.015.289.023.446.023.156 0 .305-.008.446-.023.142-.032.29-.062.447-.094.5 1.327 1.033 2.746 1.597 4.26.579 1.513 1.158 3.003 1.737 4.47.58 1.45 1.143 2.83 1.69 4.142.55 1.31 1.05 2.418 1.504 3.322M50.668 10.64c-.407.936-.79 1.864-1.15 2.785-.36.905-.712 1.833-1.057 2.785h4.297c-.344-.952-.689-1.88-1.033-2.785-.329-.921-.68-1.849-1.057-2.785M60.814 12.723v3.183c0 1.294-.015 2.449-.047 3.463-.031.998-.078 1.981-.141 2.948.125-.016.274-.031.446-.047H68.141c.626.016 1.151.031 1.574.047-.032-.093-.055-.21-.07-.35-.016-.142-.024-.336-.024-.586 0-.25.008-.444.024-.585.015-.14.038-.296.07-.468-.908.11-1.808.188-2.7.234-.893.047-1.786.07-2.678.07-.016-.608-.032-1.326-.047-2.153v-5.756c0-1.295.015-2.442.047-3.44.031-1.014.078-2.028.14-3.042-.266.03-.555.062-.869.093-.312.016-.665.023-1.056.023-.392 0-.744-.007-1.057-.023-.313-.03-.603-.062-.869-.093.063 1.014.11 2.028.14 3.042.033.998.048 2.145.048 3.44M75.234 15.04h.047c.798 1.216 1.582 2.441 2.348 3.673.767 1.217 1.55 2.419 2.349 3.604.344-.032.681-.047 1.01-.047h2.09c.36 0 .767.015 1.221.047-.313-.374-.728-.928-1.244-1.661-.517-.75-1.08-1.56-1.691-2.434-.596-.89-1.198-1.794-1.809-2.714-.61-.921-1.166-1.763-1.667-2.528.313-.374.751-.881 1.315-1.52.564-.656 1.151-1.327 1.761-2.013.626-.687 1.214-1.327 1.761-1.92.549-.592.956-1.022 1.222-1.287-.266.032-.517.063-.752.094-.219.016-.438.023-.657.023-.22 0-.439-.007-.658-.023l-.658-.094c-.203.297-.532.741-.986 1.335-.454.577-.963 1.216-1.526 1.919-.564.702-1.151 1.427-1.762 2.176-.61.733-1.182 1.411-1.714 2.035V11.46c0-1.139.008-2.176.024-3.112.03-.937.086-1.638.164-2.107-.267.032-.556.063-.87.094-.312.016-.665.023-1.056.023s-.743-.007-1.057-.023c-.313-.031-.602-.062-.869-.094.063 1.015.11 2.03.141 3.043.031.998.047 2.145.047 3.44v3.182c0 1.295-.016 2.45-.047 3.464-.031.998-.078 1.981-.14 2.948.266-.032.555-.047.868-.047h2.114c.313 0 .602.015.869.047-.094-.717-.149-1.685-.164-2.901-.016-1.218-.024-2.676-.024-4.377M85.732 12.723v3.183c0 1.294-.015 2.449-.047 3.463-.031.998-.078 1.981-.141 2.948.266-.031.618-.047 1.057-.047h1.315c.595 0 1.159.008 1.69.024.549.015 1.136.023 1.762.023.705 0 1.385-.07 2.043-.21.658-.156 1.237-.421 1.738-.796.517-.374.924-.858 1.222-1.45.313-.594.47-1.311.47-2.154 0-.702-.157-1.295-.47-1.778-.298-.5-.666-.905-1.104-1.218-.44-.31-.9-.537-1.386-.678-.485-.156-.908-.242-1.268-.257v-.047c.36-.063.759-.18 1.198-.35.454-.173.868-.406 1.244-.703.392-.312.72-.694.987-1.147.266-.467.4-1.022.4-1.661 0-.64-.119-1.186-.353-1.638-.22-.468-.54-.843-.963-1.123-.423-.297-.924-.516-1.504-.656-.579-.14-1.22-.21-1.925-.21-.673 0-1.378.023-2.114.07-.735.03-1.44.046-2.113.046-.392 0-.744-.007-1.057-.023-.314-.03-.603-.062-.87-.093.064 1.014.11 2.028.142 3.042.032.998.047 2.145.047 3.44m7.233-2.41c0 .499-.078.936-.235 1.31-.156.374-.36.686-.61.936-.25.234-.54.414-.869.538-.313.125-.634.188-.963.188H89.23c0-.406-.008-.796-.023-1.17v-1.218c0-.405.007-.905.023-1.497.016-.593.039-1.178.07-1.756.157-.03.298-.047.423-.047.141-.015.384-.022.728-.022.47 0 .861.077 1.175.234.313.14.57.335.774.585.204.234.345.522.423.865.094.328.141.68.141 1.053m.165 7.559c0 .515-.071.968-.212 1.357-.141.39-.329.726-.564 1.007-.234.265-.508.468-.822.608-.312.14-.642.211-.986.211h-.68c-.189-.016-.393-.032-.611-.047 0-.203-.008-.46-.024-.772v-1.03c0-.374-.008-.757-.023-1.147v-2.387c.015-.358.023-.702.023-1.03h.446c.157-.015.345-.023.564-.023.94 0 1.651.273 2.137.82.501.53.752 1.34.752 2.433M112.74 22.317c-.376-.032-.737-.047-1.08-.047H109.662c-.329 0-.658.015-.986.047-.25-.764-.51-1.544-.776-2.34-.266-.795-.547-1.59-.845-2.387-.5-.015-1.002-.023-1.503-.023-.5-.016-1.003-.024-1.503-.024-.407 0-.814.008-1.221.024-.407 0-.815.008-1.222.023-.313.796-.602 1.592-.868 2.387-.266.796-.51 1.576-.728 2.34-.188-.032-.377-.047-.564-.047h-1.104c-.187 0-.39.015-.61.047.187-.405.438-.967.751-1.685.314-.717.658-1.529 1.033-2.433.376-.905.775-1.872 1.198-2.902.438-1.046.87-2.099 1.292-3.16.438-1.06.861-2.105 1.268-3.135.423-1.03.806-1.99 1.15-2.879.157.032.306.062.447.094.141.015.29.023.446.023.157 0 .306-.008.446-.023.142-.032.29-.062.447-.094.5 1.327 1.033 2.746 1.597 4.26.579 1.513 1.158 3.003 1.738 4.47.579 1.45 1.143 2.83 1.69 4.142.548 1.31 1.05 2.418 1.503 3.322m-8.314-11.677c-.406.936-.79 1.864-1.15 2.785-.36.905-.712 1.833-1.057 2.785h4.298c-.345-.952-.689-1.88-1.034-2.785-.328-.921-.68-1.849-1.057-2.785M114.783 10.897c0 1.186-.024 2.427-.071 3.721-.03 1.28-.078 2.473-.14 3.58-.048 1.093-.094 2.021-.142 2.785-.047.765-.086 1.209-.117 1.334.36-.032.72-.047 1.08-.047h.54c.188 0 .376.015.564.047-.016-.171-.03-.398-.047-.679-.016-.296-.031-.67-.047-1.123-.015-.452-.031-1.006-.047-1.661v-6.482l.047-1.357c3.617 3.79 7.038 7.558 10.263 11.302.266-.032.571-.047.916-.047.33 0 .65.015.963.047V16.35c.015-.998.039-2.005.07-3.019.032-1.014.07-2.09.118-3.229.046-1.155.11-2.442.188-3.862-.439.079-.79.118-1.057.118-.266 0-.618-.039-1.057-.118.032.157.055.46.07.913.032.452.047.991.047 1.615.016.624.024 1.31.024 2.059.015.734.023 1.482.023 2.247v4.306c-1.753-1.888-3.468-3.745-5.143-5.57-1.66-1.825-3.343-3.682-5.05-5.57-.438.079-.79.118-1.056.118s-.618-.039-1.057-.118c.016.562.04 1.21.07 1.943.032.733.048 1.638.048 2.714M135.52 15.04h.047c.799 1.216 1.581 2.441 2.348 3.673.768 1.217 1.55 2.419 2.35 3.604.343-.032.68-.047 1.009-.047h2.09c.36 0 .767.015 1.221.047-.313-.374-.728-.928-1.245-1.661-.516-.75-1.08-1.56-1.69-2.434-.595-.89-1.198-1.794-1.809-2.714-.61-.921-1.166-1.763-1.667-2.528.313-.374.751-.881 1.315-1.52.564-.656 1.151-1.327 1.761-2.013.626-.687 1.214-1.327 1.762-1.92.547-.592.955-1.022 1.221-1.287-.266.032-.517.063-.751.094-.22.016-.439.023-.658.023-.22 0-.438-.007-.658-.023l-.657-.094c-.204.297-.532.741-.986 1.335-.454.577-.964 1.216-1.527 1.919-.564.702-1.15 1.427-1.761 2.176-.61.733-1.183 1.411-1.715 2.035V11.46c0-1.139.008-2.176.024-3.112.031-.937.086-1.638.164-2.107-.266.032-.556.063-.869.094-.313.016-.665.023-1.057.023-.391 0-.744-.007-1.056-.023-.314-.031-.603-.062-.87-.094.063 1.015.11 2.03.141 3.043.032.998.047 2.145.047 3.44v3.182c0 1.295-.015 2.45-.047 3.464-.031.998-.078 1.981-.14 2.948.266-.032.555-.047.869-.047h2.113c.313 0 .603.015.869.047-.094-.717-.15-1.685-.164-2.901-.016-1.218-.024-2.676-.024-4.377M10.081 18.662h2.72l.799.01v2.33h-.81V19.47h-2.4v1.533h-.81v-2.33h.501v-.01zm-1.768-1.544h6.049l.798.01v6.244h-.81v-5.447H8.78v5.447h-.81v-6.244h.343v-.01zm-1.125-1.594h8.783l.8.01v10.21h-.811V16.33H7.188l.006 9.412h-.81V15.535h.81l-.006-.01zm5.886-5.508h-2.72l-.8-.01v-2.33h.811v1.533h2.4V7.676h.81v2.33h-.501v.01zm1.768 1.545H8.793l-.8-.01V5.306h.811v5.446h5.57V5.307h.811v6.243h-.343v.011zm1.125 1.593H7.183l-.798-.01V2.933h.81v9.413h8.772l-.007-9.412h.81v10.208h-.81l.007.01zm6.417 7.916h.81V7.686h-.81V21.07zm-1.634 2.354h.81V5.357h-.81v18.067zm-1.573 2.378h.81V2.979h-.81v22.823zm-1.617 2.35V14.787H5.633v13.365h-.81V.602h.81V13.98H17.56V.602h.81v27.55h-.81zM0 21.068h.81V7.684H0v13.384zm1.635 2.33h.81V5.33h-.81v18.067zm1.573 2.376h.81V2.952h-.81v22.822z" transform="translate(.111 .714)"/>
    </g>
</svg>
