<svg xmlns="http://www.w3.org/2000/svg" width="158" height="44" viewBox="0 0 158 44">
    <g fill="none" fill-rule="evenodd">
        <path fill="#DB0011" d="M63.787 0L63.787 42.373 84.956 21.186zM21.262 0L42.524 21.186 63.787 0zM21.262 0L0 21.186 21.262 42.373zM21.262 42.372L63.787 42.372 42.524 21.186z" transform="translate(0 .629)"/>
        <path fill="#000" d="M116.85 11.883c3.328 0 6.47 1.198 6.47 5.158h-3.79c-.092-1.658-1.11-2.488-2.865-2.488-1.48 0-2.867.738-2.867 2.396 0 1.289 1.203 1.658 3.698 2.487l1.48.461c3.142.921 4.99 2.026 4.99 4.974.187 3.96-3.697 5.435-7.301 5.435-3.791 0-7.027-1.566-7.027-5.711h3.791c0 1.933 1.202 2.947 3.236 2.947 1.571 0 3.328-.829 3.328-2.487 0-1.381-1.202-1.75-3.236-2.396l-1.294-.367c-2.773-.83-5.64-1.934-5.64-5.158 0-3.962 3.699-5.251 7.027-5.251zm33.834.092c3.606 0 7.026 1.566 7.026 5.62h-3.975c-.093-1.567-1.48-2.856-3.051-2.764-3.513 0-4.53 3.684-4.53 6.54 0 2.854 1.11 6.078 4.438 6.078 1.663.093 3.143-1.105 3.327-2.763h4.069c-.556 4.054-3.791 5.62-7.489 5.62-5.732 0-8.32-3.685-8.32-9.027 0-5.344 2.867-9.304 8.505-9.304zm-14.606.645c2.126.46 3.79 1.934 3.79 4.237s-1.48 3.5-3.605 4.053c2.403.46 4.16 1.658 4.16 4.237 0 4.053-3.976 4.974-7.211 4.974h-6.933V12.343h6.287c1.2-.092 2.31 0 3.512.277zm-40.12-.276v7.276h7.764v-7.276h3.79v17.685h-3.79v-7.553h-7.765v7.553h-3.883V12.344h3.883zm37.254 9.764h-3.143v5.157h2.866v.093c1.756 0 3.605-.46 3.605-2.58 0-2.119-1.572-2.67-3.328-2.67zm-.462-7.185h-2.774v4.79h2.496c1.664 0 3.513-.369 3.513-2.395 0-1.75-1.664-2.395-3.235-2.395z" transform="translate(0 .629)"/>
    </g>
</svg>
