<svg xmlns="http://www.w3.org/2000/svg" width="128" height="46" viewBox="0 0 128 46">
    <g fill="none" fill-rule="evenodd">
        <path fill="#0099D7" d="M32.602 1.341l7.794 8.72c.089.094.466.525.466.525 3.36 4.135-.542 13.754-8.833 22.337-8.465 8.766-18.155 13.388-22.642 9.585L0 35.042c1.804 1.13 4.96.56 8.71-1.341.08-.037.156-.078.234-.117.045-.025.093-.05.14-.073 3.934-2.061 8.48-5.537 12.804-10.014 4.334-4.491 7.65-9.166 9.552-13.162l.074-.157c.036-.076.071-.149.104-.224 1.723-3.752 2.163-6.872.984-8.613" transform="translate(0 .857)"/>
        <path fill="#F6923A" d="M33.687 36.057c-2.166 2.252-2.773 5.164-1.36 6.506 1.415 1.34 4.317.605 6.488-1.648 2.166-2.248 2.776-5.165 1.363-6.505-1.418-1.343-4.323-.603-6.491 1.647" transform="translate(0 .857)"/>
        <path fill="#0070AE" d="M30.239 1.362C26.996-1.72 17.347 3.24 8.497 12.396c-.651.676-1.279 1.436-1.882 2.18l7.973 7.306c.637-.753 1.156-1.327 1.871-2.064 4.273-4.423 8.733-7.872 12.807-9.249 2.014-4.212 2.653-7.608.973-9.207M62.385 11.715h2.73v6.774s0 1.798 2.828 1.798c.921 0 2.905.319 2.905-2.441v-6.085h2.707v6.65s.546 3.671-5.86 3.671c-1.066 0-5.287-.246-5.287-3.446 0-3.206-.023-6.921-.023-6.921M100.764 11.689v1.88h-5.612s-3.075-.37-3.075 2.802c0 .497-.524 3.67 2.679 3.67h3.225v-2.357h-3.498V15.8h6.349v6.14h-5.604s-6.257.97-6.257-5.269c0-1.39.822-4.932 5.04-4.932 4 0 6.753-.05 6.753-.05M82.47 16.085h-3.749v-2.537h3.798c1.389 0 1.86.596 1.86 1.22 0 1.566-1.908 1.317-1.908 1.317zm2.132 1.616c2.254-.423 2.532-2.21 2.532-2.934 0-3.402-4.093-3.007-4.093-3.007h-7.044v10.264H78.7v-4.05l3.2.025 2.808 3.972h3.071l-3.177-4.27zM55.292 15.825h-4.07v-2.238s3.151-.053 4.097-.053c.943 0 1.54.546 1.54 1.086 0 1.48-1.567 1.205-1.567 1.205m.075 4.191h-4.196v-2.243s3.004-.027 4.22-.027c1.22 0 1.467.594 1.467 1.036 0 1.477-1.49 1.234-1.49 1.234m2.627-3.229s1.89-.469 1.864-2.387c-.023-1.923-1.963-2.64-3.647-2.64-1.688 0-7.77-.02-7.77-.02v10.223h7.224s4.17.27 4.17-2.69c0-1.303-.622-1.994-1.84-2.486M55.292 29.756h-4.074v-2.238s3.152-.052 4.094-.052c.945 0 1.546.544 1.546 1.084 0 1.48-1.566 1.206-1.566 1.206m.073 4.192h-4.197v-2.244s3.006-.026 4.22-.026c1.216 0 1.47.593 1.47 1.034 0 1.478-1.493 1.236-1.493 1.236m2.631-3.232s1.884-.466 1.856-2.386c-.019-1.92-1.952-2.637-3.646-2.637-1.689 0-7.765-.023-7.765-.023v10.223h7.222s4.17.271 4.17-2.69c0-1.305-.621-1.997-1.837-2.487M88.385 25.584L88.463 35.902 91.191 35.902 91.191 30.892 95.986 35.815 99.47 35.815 94.315 30.537 99.381 25.584 96.124 25.584 91.191 30.395 91.191 25.584zM64.991 31.57l1.8-3.779 1.802 3.778h-3.602zm3.253-5.976h-2.9l-5.348 10.291h2.956l1.124-2.398h5.51l1.124 2.345h3.013l-5.48-10.238zM74.614 25.653L78.104 25.653 83.234 32.823 83.234 25.601 85.835 25.601 85.835 35.893 82.851 35.893 77.352 28.399 77.352 35.837 74.717 35.837zM107.1 17.667l1.804-3.778 1.794 3.778H107.1zm3.254-5.972h-2.9l-5.349 10.29h2.958l1.128-2.401h5.505l1.126 2.347h3.007l-5.475-10.236zM116.532 11.755L120.027 11.755 125.157 18.923 125.157 11.702 127.759 11.702 127.759 21.992 124.78 21.992 119.276 14.494 119.276 21.938 116.641 21.938z" transform="translate(0 .857)"/>
    </g>
</svg>
