<svg xmlns="http://www.w3.org/2000/svg" width="159" height="24" viewBox="0 0 159 24">
    <g fill="none" fill-rule="evenodd">
        <path fill="#0F7AD1" d="M28.766 22.863h-4.439c-3.307 0-5.989-2.672-5.989-5.968V6.51c0-.002 10.428-.003 10.428-.003 3.306 0 5.989 2.672 5.989 5.967v4.422c0 3.296-2.683 5.968-5.99 5.968" transform="translate(0 .486)"/>
        <path fill="#231F20" d="M5.989.965h4.438c3.307 0 5.99 2.671 5.99 5.967v10.386l-10.428.003C2.681 17.321 0 14.65 0 11.354V6.932C0 3.636 2.681.965 5.989.965M46.49 8.931l-1.852 5.312h3.644L46.49 8.931zm3.418 10.297l-.864-2.585h-5.208l-.885 2.585h-2.984l5.331-14.603h2.242l5.352 14.603h-2.984zM60.715 19.228v-6.462c0-1.147-.638-1.948-1.771-1.948-1.153 0-1.79.78-1.79 1.948v6.462H54.48V8.542h2.613v.985c.7-.738 1.585-1.109 2.676-1.109 1.173 0 2.08.37 2.717 1.129.597.718.905 1.662.905 2.85v6.83h-2.675zM71.363 14.715h-2.12c-1.009 0-1.502.41-1.502 1.21 0 .82.514 1.23 1.543 1.23.926 0 1.523-.224 1.832-.676.165-.246.247-.636.247-1.19v-.574zm.061 4.513v-.923c-.679.676-1.563 1.024-2.634 1.024-1.111 0-1.976-.286-2.614-.84-.68-.575-1.008-1.416-1.008-2.503 0-1.025.37-1.804 1.09-2.358.659-.493 1.523-.739 2.573-.739h2.532v-.532c0-1.128-.658-1.682-1.997-1.682-.864 0-1.544.287-2.058.882L65.6 9.895c.514-.574 1.11-.963 1.75-1.19.555-.183 1.255-.287 2.12-.287 3.046 0 4.569 1.252 4.569 3.775v7.035h-2.615zM82.272 11.844c-.267-.677-.802-1.025-1.585-1.025-.803 0-1.317.348-1.584 1.025-.144.39-.226 1.066-.226 2.03 0 .964.082 1.641.226 2.03.267.698.803 1.047 1.584 1.047.783 0 1.318-.349 1.585-1.026.165-.431.248-1.107.248-2.05 0-.924-.083-1.6-.248-2.031zm.31 7.384v-1.005c-.68.758-1.564 1.127-2.655 1.127-2.039 0-3.232-1.005-3.583-3.015-.102-.554-.143-1.375-.143-2.46 0-1.066.04-1.887.143-2.44.35-2.011 1.524-3.016 3.562-3.016 1.091 0 1.975.35 2.614 1.067V4.624h2.676v14.604H82.58zM93.06 11.823c-.269-.676-.803-1.005-1.586-1.005-.762 0-1.297.35-1.565 1.026-.184.45-.289 1.128-.289 2.03 0 .924.083 1.6.27 2.051.287.677.822 1.026 1.584 1.026.783 0 1.317-.35 1.585-1.026.184-.43.288-1.127.288-2.05 0-.923-.104-1.6-.288-2.052m1.75 6.215c-.845.881-1.956 1.313-3.335 1.313-1.38 0-2.47-.432-3.315-1.313-.802-.841-1.214-2.216-1.214-4.163 0-3.63 1.503-5.457 4.529-5.457 3.025 0 4.55 1.826 4.55 5.457 0 1.947-.413 3.322-1.215 4.163M100.818 19.228c-1.873 0-3.127-1.19-3.127-3.057V4.625h2.674v11.382c0 .636.31.964.948.964h1.03v2.257h-1.525zM109.835 19.228v-.985c-.7.738-1.586 1.107-2.677 1.107-1.172 0-2.078-.37-2.715-1.127-.597-.718-.906-1.662-.906-2.851v-6.83h2.676v6.46c0 1.15.637 1.95 1.77 1.95 1.151 0 1.79-.78 1.79-1.95v-6.46h2.675v10.686h-2.613zM121.107 11.844c-.267-.677-.782-1.025-1.586-1.025-.802 0-1.316.348-1.583 1.025-.146.39-.228 1.066-.228 2.03 0 .964.082 1.641.228 2.03.267.698.802 1.047 1.583 1.047.783 0 1.319-.349 1.586-1.046.144-.39.226-1.067.226-2.03 0-.965-.082-1.641-.226-2.031m2.758 4.49c-.35 2.011-1.524 3.016-3.56 3.016-1.092 0-1.998-.37-2.677-1.127v1.005h-2.593V4.624h2.675v4.862c.638-.718 1.503-1.067 2.594-1.067 2.037 0 3.211 1.005 3.56 3.015.104.554.145 1.375.145 2.44 0 1.086-.04 1.907-.144 2.46M131.765 14.715h-2.119c-1.008 0-1.503.41-1.503 1.21 0 .82.515 1.23 1.544 1.23.926 0 1.522-.224 1.831-.676.165-.246.247-.636.247-1.19v-.574zm.062 4.513v-.923c-.68.676-1.564 1.024-2.634 1.024-1.112 0-1.977-.286-2.614-.84-.68-.575-1.01-1.416-1.01-2.503 0-1.025.37-1.804 1.092-2.358.658-.493 1.523-.739 2.573-.739h2.531v-.532c0-1.128-.66-1.682-1.997-1.682-.863 0-1.543.287-2.056.882l-1.71-1.662c.514-.574 1.11-.963 1.75-1.19.555-.183 1.255-.287 2.12-.287 3.046 0 4.57 1.252 4.57 3.775v7.035h-2.615zM143.19 19.228v-6.462c0-1.147-.639-1.948-1.77-1.948-1.153 0-1.792.78-1.792 1.948v6.462h-2.675V8.542h2.614v.985c.7-.738 1.585-1.109 2.676-1.109 1.173 0 2.079.37 2.717 1.129.597.718.906 1.662.906 2.85v6.83h-2.677zM154.819 19.228L152.185 14.777 151.053 16.048 151.053 19.228 148.377 19.228 148.377 4.625 151.053 4.625 151.053 12.91 154.613 8.542 157.845 8.542 154.017 12.848 158.134 19.228z" transform="translate(0 .486)"/>
    </g>
</svg>
