<svg xmlns="http://www.w3.org/2000/svg" width="143" height="61" viewBox="0 0 143 61">
    <path fill-rule="evenodd" d="M98.312 40.769c5.848.018 7.475 2.426 7.465 6.52l-.025 8.927.009 3.449v.238l-4.14-.012.007-3.204h-.034c-.884 2.11-3.122 3.57-5.83 3.56-3.289-.01-5.182-1.94-5.175-4.947.012-4.477 4.34-6.837 10.514-6.818l.003-1.011c.006-1.957-.907-2.981-3.54-2.987-1.648-.006-3.837.554-5.378 1.453l-.398-4.03c1.837-.672 4.186-1.145 6.522-1.138zM73.27 32.294l4.692.015-.005 2.35-.015 5.74-.007 3.117c1.009-1.734 2.891-2.8 5.239-2.794 4.35.016 6.685 3.288 6.667 8.816-.013 6.321-3.612 10.683-9.868 10.663-2.63-.01-4.695-.321-6.774-.926l.07-26.98zm-10.288 8.368c5.847.017 7.482 2.427 7.473 6.522l-.025 8.927.003 3.447v.238l-4.135-.011.007-3.205h-.042c-.885 2.112-3.114 3.57-5.83 3.562-3.278-.01-5.178-1.94-5.17-4.948.012-4.476 4.335-6.836 10.508-6.817l.003-1.011c.006-1.96-.907-2.98-3.538-2.99-1.637-.003-3.839.558-5.374 1.455l-.392-4.031c1.83-.671 4.174-1.144 6.512-1.138zm-16.586-.048c5.3.015 7.628 3.737 7.617 8.37-.002.636-.045 1.392-.156 2.185l-11.253-.034c-.051 3.495 1.627 5.192 4.993 5.203 1.79.005 3.728-.404 5.299-1.154l.423 3.732c-1.93.777-4.234 1.192-6.506 1.185-5.772-.017-8.983-3.008-8.967-9.586.018-5.72 3.098-9.919 8.55-9.901zM31.674 32.17l4.695.016-.07 27.51-4.175-.012.009-3.164-.077-.004c-.955 2.07-2.972 3.531-5.747 3.522-4.434-.012-6.606-3.48-6.593-8.82.018-6.326 3.613-10.674 9.638-10.655.776 0 1.504.035 2.298.152l.022-8.545zm94.49.285l4.683.015-.042 16.6 5.355-7.821 5.695.017-6.44 8.565 6.844 10.183-5.853-.019-5.606-9.28-.024 9.263-4.684-.014.072-27.51zM10.216 40.505c5.167.015 8.49 2.969 8.472 9.408-.017 5.877-3.87 10.093-9.328 10.075C4.2 59.973.872 57.21.89 50.537c.017-5.844 3.802-10.05 9.327-10.032zm108.2.324c4.093.012 5.453 2.724 5.444 5.992l-.034 13.136-4.697-.012.031-11.973c.006-1.953-.506-3.12-2.224-3.125-2.373-.005-4.194 2.772-4.202 6.044l-.023 9.032-4.69-.012.026-18.744 4.152.01-.009 3.35.034.042c1.105-2.22 3.233-3.75 6.192-3.74zm-17.321 10.776c-4.931-.015-6.038 1.453-6.04 2.956-.003 1.205.802 1.996 2.156 2.001 2.3.006 3.878-2.243 3.884-4.5zM65.764 51.5c-4.93-.016-6.03 1.448-6.034 2.955-.002 1.202.794 1.994 2.144 2.001 2.307.005 3.885-2.243 3.89-4.503zm16.042-6.759c-2.412-.005-3.882 2.884-3.89 6.008l-.015 5.27c.667.225 1.433.344 2.418.346 2.667.01 4.572-1.72 4.583-6.346.01-3.501-.97-5.268-3.096-5.278zm-52.608-.345c-2.667-.008-4.578 1.716-4.59 6.34-.009 3.503.979 5.308 3.097 5.317 2.446.006 3.916-2.926 3.924-6.119l.014-5.222c-.832-.201-1.634-.316-2.445-.316zm-19.317.172c-2.093-.006-4.155 1.648-4.163 5.493-.013 3.848 1.347 5.81 4.06 5.819 2.3.007 4.073-1.913 4.084-5.722.008-3.615-1.234-5.58-3.981-5.59zm36.359-.426c-1.94-.006-3.302 1.462-3.558 3.72l6.69.017c.079-2.335-1.164-3.73-3.132-3.737zM83.808 0c6.57-.016 11.949 5.516 11.992 12.323.048 6.841-5.278 12.446-11.887 12.489l-.05.005c-2.191.002-4.238-.608-6.007-1.673 1.507-.906 2.796-2.136 3.788-3.595.699.232 1.439.357 2.21.357h.033c3.967-.033 7.172-3.414 7.138-7.55-.026-4.116-3.254-7.453-7.204-7.447h-.034c-.753.006-1.48.135-2.172.363-1.007-1.461-2.306-2.688-3.818-3.59-.902.555-1.744 1.226-2.498 2.019-2.238 2.357-3.463 5.477-3.438 8.785.032 4.55 2.436 8.524 5.995 10.658-1.76 1.068-3.813 1.686-5.998 1.701-2.249.011-4.348-.608-6.156-1.692 2.923-1.785 5.05-4.78 5.735-8.316l-6.909 7.514c.37.294.765.56 1.174.802-.975.602-2.041 1.065-3.17 1.37l1.995-2.171c-1.131-.878-2.112-1.955-2.886-3.187l9.538-10.359c-.444-1.529-1.152-2.929-2.079-4.158l-9.193 10c-.12-.695-.196-1.406-.2-2.129-.006-1.816.358-3.538 1.027-5.102L65.97 1.73c-.054-.03-.099-.057-.16-.09-2.231 1.311-4.02 3.34-5.074 5.777l-11.25 12.24c-.853-1.225-1.5-2.614-1.888-4.118L61.863.036c1.422.296 2.75.85 3.947 1.604l.33-.186C67.8.552 69.688.035 71.693.022c2.223-.016 4.298.595 6.103 1.66C79.587.602 81.623.018 83.747 0zM59.907 14.646c.284 1.638.886 3.172 1.734 4.519l-4.982 5.423c-1.518-.361-2.92-1.01-4.166-1.89zm21.709-9.375c1.379 2.004 2.2 4.44 2.215 7.082.017 2.675-.793 5.152-2.187 7.196-2.878-.965-4.991-3.774-5.017-7.093-.005-2.013.728-3.898 2.082-5.321.832-.868 1.82-1.498 2.907-1.864zM55.737.378l-8.152 8.873c1.043-4.215 4.149-7.571 8.152-8.873z"/>
</svg>
