<svg xmlns="http://www.w3.org/2000/svg" width="157" height="22" viewBox="0 0 157 22">
    <g fill="none" fill-rule="evenodd">
        <path fill="#FDB913" d="M2.579 5.965L0 19.922h18.109c5.329 0 8.424-1.274 8.94-5.27.343-2.722-1.892-4.46-3.783-4.807 1.891-.347 4.183-1.042 4.642-3.822.344-2.085-1.49-5.038-6.648-5.038H8.596c-3.438 0-5.616 2.49-6.017 4.98" transform="translate(.778 .257)"/>
        <path fill="#FFF" d="M13.352 6.023c-.63.81-4.47 5.154-7.22 8.513.573-2.78 1.662-8.745 2.578-9.96.86-1.217 2.178-1.39 2.178-1.39s-4.814-1.39-6.246 4.516c-.516 2.201-2.063 9.903-2.063 9.903.057.058 4.412.464 6.533-2.085.974-1.1 5.673-7.007 6.934-8.686 2.75-3.59 4.412-3.823 4.412-3.823s-4.355-.463-7.106 3.012" transform="translate(.778 .257)"/>
        <path fill="#010101" fill-rule="nonzero" d="M43.724 19.922L53.753.985h-3.496l-7.392 14.883L40.974.985h-3.955L40.4 19.98h3.324v-.058zm15.473-7.413l-1.09 5.965c-.63.058-1.03.058-2.177 0-1.719-.058-3.209-.753-2.922-2.548.4-2.432 2.693-3.185 6.189-3.417zm3.782-1.737c.63-3.533-2.006-4.865-5.158-4.865-2.063 0-3.266.29-4.47.81l-1.03 2.086c1.546-.637 3.15-.869 4.526-.869 1.891 0 3.152.58 2.865 2.316l-.114.753c-5.158.29-9.34 1.506-9.857 4.923-.4 2.432 2.12 4.17 6.247 4.17 2.177 0 4.011-.116 5.444-.232l1.547-9.092zm9.34 1.795l6.706-6.255H75.3l-6.304 6.255L71.116.985h-3.495L64.182 19.98h3.496l1.26-7.066 4.184 7.008h4.126l-4.928-7.355zm9.57 7.355l2.465-13.61H81.03l-2.464 13.61h3.324zM97.077 1.506c.4-.406 1.146-.637 1.146-.637-4.069-.985-8.539.405-9.226 3.764l-.287 1.622h-2.292l-.344 1.969h2.292l-2.12 11.64h3.496l2.12-11.64h2.636l.344-1.97h-2.636l.172-1.042c.344-1.737.917-3.359 4.24-2.838-.057.058.058-.463.459-.868zm10.659 4.459c-.344 1.969-1.834 3.127-5.674 3.011-1.088 0-1.375-.115-1.375-.115l1.089-5.965c.688-.29 1.375-.464 2.407-.464 2.578.058 3.954 1.216 3.553 3.533zm-7.393 4.69l1.089-.057c4.355-.174 5.616 1.68 5.158 4.054-.459 2.316-2.407 3.243-4.986 3.243-1.089 0-1.662 0-2.579-.058l1.318-7.181zm11.118-4.864c.343-2.2-1.662-5.212-6.934-5.212-2.637 0-6.19.637-6.59 2.664l-2.98 16.679c1.833.231 3.552.231 6.36.173 5.502-.057 8.654-1.331 9.227-5.443.4-2.78-1.949-4.575-3.897-4.923 1.948-.347 4.298-1.042 4.814-3.938zm9.741 6.718l-1.088 5.965c-.63.058-1.032.058-2.178 0-1.72-.058-3.21-.753-2.923-2.548.402-2.432 2.694-3.185 6.19-3.417zm3.783-1.737c.63-3.533-2.006-4.865-5.158-4.865-2.063 0-3.266.29-4.527.81l-1.032 2.086c1.548-.637 3.152-.869 4.528-.869 1.89 0 3.151.58 2.865 2.316l-.172.753c-5.158.29-9.34 1.506-9.857 4.923-.4 2.432 2.12 4.17 6.247 4.17 2.177 0 4.011-.116 5.444-.232l1.662-9.092zm15.243-.522c.401-2.2-.86-4.17-5.673-4.17-2.751 0-4.757.464-6.361 1.043l-2.35 12.799h3.553l2.063-11.467c.745-.29 1.433-.463 2.636-.463 2.292 0 2.866 1.1 2.694 2.258l-1.777 9.672h3.438l1.777-9.672zm5.788 2.259h-.057L148.02.985h-3.496l-3.438 18.937h3.495l1.26-6.95h.058l4.126 6.95h4.126l-4.87-7.355 6.704-6.255h-3.725l-6.246 6.197z" transform="translate(.778 .257)"/>
        <path stroke="#18A6DF" stroke-width=".889" d="M37.077 19.748L37.077 19.748" transform="translate(.778 .257)"/>
    </g>
</svg>
