<svg xmlns="http://www.w3.org/2000/svg" width="128" height="37" viewBox="0 0 128 37">
    <defs>
        <linearGradient id="prefix__a" x1="20.915%" x2="74.393%" y1="58.658%" y2="41.11%">
            <stop offset="0%" stop-color="#E14A55"/>
            <stop offset="100%" stop-color="#8E278F"/>
        </linearGradient>
    </defs>
    <path fill="url(#prefix__a)" fill-rule="evenodd" d="M121.328 13.161c-1.226.543-2.451.95-3.677 1.221l-2.179.543c-1.089.272-1.906.679-2.45 1.221-.41.679-.682 1.357-.682 2.036 0 .814.273 1.628.817 2.306.545.543 1.362.814 2.452.814 1.77 0 3.131-.542 4.085-1.492.953-.95 1.497-2.442 1.497-4.206V13.16h.137zm1.498 11.67c-1.362.678-2.724 1.085-4.222 1.22-1.225.136-2.587.272-3.949.272-2.178 0-4.221-.679-5.855-1.9-1.634-1.221-2.587-3.256-2.587-6.106 0-2.713.817-4.613 2.315-5.698 1.498-1.086 3.54-1.9 5.855-2.307.408 0 .817 0 1.09-.136.544-.135.953-.135 1.497-.271 2.724-.407 4.085-1.221 4.085-2.442 0-.95-.544-1.629-1.498-1.9-.817-.271-1.77-.407-2.723-.407-.817 0-1.634.136-2.315.407-.68.271-1.225.814-1.498 1.493h-6.264c.273-1.9 1.09-3.664 2.588-4.885C110.979.678 113.43 0 116.562 0c3.54 0 6.127.543 7.898 1.764 1.77 1.221 2.723 2.985 2.723 5.292v8.683c0 2.578-.409 4.478-1.362 5.97-.544 1.357-1.634 2.443-2.995 3.121zm-30.639 1.085V13.704c0-2.442.409-4.613 1.09-6.241.68-1.629 1.634-2.985 2.995-4.07 1.226-.95 2.588-1.63 4.222-2.036 1.634-.407 3.268-.679 4.902-.679h.817v6.785h-2.179c-1.77 0-3.132.407-4.085 1.356-.817.95-1.362 2.307-1.362 4.207V26.05l-6.4-.135zm-7.08-12.755c-1.226.543-2.452.95-3.677 1.221l-2.179.543c-1.09.272-1.906.679-2.451 1.221-.409.679-.68 1.357-.68 2.036 0 .814.271 1.628.816 2.306.545.543 1.362.814 2.451.814 1.77 0 3.132-.542 4.085-1.492.954-.95 1.498-2.442 1.498-4.206l.136-2.443zm1.497 11.67c-1.361.678-2.723 1.085-4.221 1.22-1.226.136-2.587.272-3.949.272-2.179 0-4.221-.679-5.855-1.9-1.634-1.221-2.588-3.256-2.588-6.106 0-2.713.818-4.613 2.315-5.698 1.498-1.086 3.54-1.9 5.856-2.307.408 0 .817 0 1.09-.136.544-.135.952-.135 1.497-.271 2.723-.407 4.085-1.221 4.085-2.442 0-.95-.545-1.629-1.498-1.9-.817-.271-1.77-.407-2.723-.407-.817 0-1.634.136-2.315.407-.681.271-1.226.814-1.498 1.493h-5.991c.272-1.9 1.089-3.664 2.587-4.885C75.03.678 77.48 0 80.613 0c3.54 0 6.127.543 7.898 1.764 1.77 1.221 2.723 2.985 2.723 5.292v8.683c0 2.578-.408 4.478-1.362 5.97-.817 1.357-1.906 2.443-3.268 3.121zM63.183 13.296c0-2.442-.409-4.342-1.362-5.699-.953-1.357-2.315-2.035-4.085-2.035-1.634 0-2.996.678-3.949 2.035-.817 1.221-1.361 3.121-1.361 5.699 0 2.442.408 4.206 1.361 5.427.953 1.357 2.315 2.036 4.085 2.036 1.498 0 2.996-.679 3.813-2.036.953-1.356 1.498-3.12 1.498-5.427zM52.426 31.886c0 .814-.273 1.628-.954 2.306-.544.679-1.361.95-2.315.95h-3.131V11.533c0-4.477 1.225-7.462 3.812-9.09C52.29.813 55.285 0 58.145 0c1.634 0 3.268.271 4.766.95 1.498.543 2.723 1.357 3.812 2.578 1.907 2.442 2.86 5.699 2.86 9.498 0 3.934-.953 7.19-2.86 9.633-1.906 2.443-4.22 3.664-7.217 3.664-1.361 0-2.86-.272-4.085-.814-1.225-.679-2.315-1.629-2.995-2.985v9.362zM39.08 13.16c-1.226.543-2.451.95-3.677 1.221l-2.178.408c-1.09.27-1.907.678-2.452 1.22-.408.68-.68 1.358-.68 2.036 0 .814.272 1.628.817 2.307.544.542 1.361.814 2.45.814 1.77 0 3.133-.543 4.086-1.493.953-.95 1.498-2.442 1.498-4.206l.136-2.307zm1.498 11.67c-1.362.678-2.724 1.085-4.222 1.22-1.225.136-2.587.272-3.948.272-2.18 0-4.222-.679-5.856-1.9-1.634-1.221-2.587-3.256-2.587-6.106 0-2.713.817-4.613 2.315-5.698 1.498-1.086 3.54-1.9 5.855-2.307.409 0 .817 0 1.09-.136.408-.135.953-.135 1.497-.271 2.724-.407 4.086-1.221 4.086-2.442 0-.95-.545-1.629-1.498-1.9-.817-.271-1.77-.407-2.724-.407-.817 0-1.634.136-2.315.407-.68.271-1.225.814-1.498 1.493h-6.263c.272-1.9 1.089-3.664 2.587-4.885C28.732.678 31.183 0 34.315 0c3.54 0 6.128.543 7.898 1.764 1.77 1.221 2.723 2.985 2.723 5.292v8.683c0 2.578-.408 4.478-1.362 5.97-.544 1.357-1.634 2.443-2.995 3.121zM6.4 31.885c0 .814-.272 1.628-.953 2.306-.545.679-1.362.95-2.315.95H0V11.533c0-4.477 1.226-7.462 3.813-9.09C6.263.813 9.26 0 12.119 0c1.634 0 3.268.271 4.766.95 1.498.543 2.724 1.357 3.813 2.578 1.906 2.442 2.86 5.699 2.86 9.498 0 3.934-.954 7.19-2.86 9.633-1.907 2.443-4.221 3.664-7.217 3.664-1.362 0-2.86-.272-4.085-.814C8.17 24.83 7.08 23.88 6.4 22.524v9.362zm10.621-18.589c0-2.442-.408-4.342-1.361-5.699-.954-1.357-2.315-2.035-4.086-2.035-1.634 0-2.995.678-3.948 2.035-.817 1.221-1.362 3.121-1.362 5.699 0 2.442.408 4.206 1.362 5.427.953 1.357 2.314 2.036 4.085 2.036 1.498 0 2.995-.679 3.812-2.036 1.09-1.356 1.498-3.12 1.498-5.427z" transform="translate(0 .943)"/>
</svg>
