<svg xmlns="http://www.w3.org/2000/svg" width="143" height="44" viewBox="0 0 143 44">
    <g fill="none" fill-rule="evenodd">
        <path fill="#939598" d="M32.356 20.097c4.34 0 6.388 2.761 6.388 5.43 0 1.904-.94 3.637-2.754 4.54v.03c2.45.57 4.198 2.71 4.198 5.317 0 3.137-2.286 6.614-7.863 6.614H25.3v-21.93h7.057zm-12.204-.013v16.31h.008c.052 1.82 1.372 2.563 3.016 2.563.012 0 .025-.004.033-.004v3.055c-.275.016-.555.02-.839.02-3.93 0-6.316-1.602-6.316-5.742V20.084h4.098zm43.259 5.774c.381 0 1.032.074 1.968.318v3.112s-.921-.305-1.7-.305c-1.346 0-2.434.817-2.483 2.51h-.005v10.534h-4.104v-10.42c0-4.15 2.389-5.749 6.324-5.749zm20.98-5.743v12.353l6.077-6.589h4.878l-5.69 6.073 6.148 10.076h-4.812l-4.193-6.987-2.407 2.566v4.42h-4.098V20.116h4.098zm18.194 5.4c3.935 0 6.321 1.605 6.321 5.75v6.249c0 2.274.087 3.446.32 4.178h-3.39l-.677-1.409c-1.036.94-2.484 1.744-4.604 1.744-2.918 0-5.21-1.97-5.21-5.08 0-3.273 2.591-5.043 6.654-5.18l2.797-.101v-.507c-.041-1.694-1.558-2.464-3.084-2.585-1.94-.158-3.183.435-3.183.435v-3.057c.838-.147 1.985-.437 4.056-.437zm-31.045 0c3.93 0 6.32 1.609 6.32 5.753v6.563c.008 2.068.098 3.164.326 3.864h-3.4l-.67-1.408c-1.043.935-2.486 1.74-4.605 1.74-2.922 0-5.21-1.97-5.212-5.077 0-3.276 2.59-5.046 6.655-5.179l2.8-.105v-.507c-.049-1.694-1.564-2.461-3.09-2.585-1.938-.158-3.183.435-3.183.435v-3.053c.843-.151 1.99-.441 4.059-.441zm-23.238.004c3.935 0 6.323 1.604 6.323 5.752v6.564c.008 2.063.095 3.16.322 3.86h-3.394l-.673-1.408c-1.041.936-2.485 1.74-4.604 1.74-2.922 0-5.211-1.969-5.211-5.076 0-3.278 2.587-5.048 6.655-5.18l2.799-.1v-.511c-.048-1.695-1.563-2.462-3.086-2.586-1.94-.154-3.187.44-3.187.44v-3.059c.843-.146 1.988-.437 4.056-.436zm-41.062 0c3.932 0 6.319 1.604 6.319 5.752v6.247c0 2.27.088 3.443.325 4.177H10.49l-.673-1.408c-1.044.936-2.488 1.74-4.606 1.74-2.92 0-5.21-1.969-5.21-5.076 0-3.278 2.586-5.048 6.652-5.18l2.801-.1v-.511c-.047-1.695-1.565-2.462-3.087-2.586-1.94-.154-3.184.44-3.184.44v-3.059c.842-.146 1.987-.437 4.057-.436zm43.284 8.925s-1.581.03-2.266.067c-2.103.11-3.158.801-3.158 2.139 0 1.303.908 2.198 2.59 2.199 1.394 0 2.296-.515 2.834-.978zm-41.063 0s-1.583.03-2.266.067c-2.107.11-3.162.801-3.162 2.139 0 1.303.91 2.198 2.591 2.199 1.393 0 2.297-.515 2.837-.978zm95.343-.004s-1.58.03-2.265.068c-2.105.109-3.159.8-3.16 2.142 0 1.296.907 2.198 2.59 2.199 1.395 0 2.299-.52 2.836-.985zm-31.046 0s-1.58.034-2.264.071c-2.107.106-3.16.797-3.16 2.139 0 1.304.908 2.198 2.588 2.199 1.397 0 2.299-.52 2.836-.985zm-41.639-1.902h-2.754v6.085h2.59c2.72 0 4.069-1.203 4.069-3.21 0-1.705-1.413-2.875-3.905-2.875zm-.769-9.123h-1.985v5.749h2.422c1.443 0 2.887-1.169 2.887-2.908 0-1.674-1.073-2.841-3.324-2.841z" transform="translate(.889 .857)"/>
        <path fill="#ED1C24" d="M139.584 26.162l-5.424-8.734v14.374c.011 1.48-1.184 3.198-3.194 3.205-1.685.012-3.232-1.33-3.248-3.314-.003-.406.212-.992.332-1.356l5.09-14.552-2.303-3.709-8.63 14.397h.004c-1.01 1.593-1.538 3.473-1.523 5.491.027 5.347 4.62 10.093 10.315 10.062 5.695-.024 10.286-4.85 10.256-10.17-.01-2.09-.586-4.074-1.675-5.694" transform="translate(.889 .857)"/>
        <path fill="#EA8741" d="M109.023 15.865l5.421 8.734V10.226c-.012-1.482 1.187-3.195 3.193-3.205 1.687-.01 3.232 1.329 3.243 3.319.005.402-.207.99-.332 1.354l-5.087 14.547 2.301 3.704 8.639-14.394-.008.005c1.001-1.593 1.544-3.509 1.534-5.527C127.9 4.682 123.293-.027 117.599 0c-5.696.03-10.285 4.858-10.258 10.172.01 2.094.585 4.077 1.682 5.694" transform="translate(.889 .857)"/>
    </g>
</svg>
