<svg xmlns="http://www.w3.org/2000/svg" width="158" height="38" viewBox="0 0 158 38">
    <g fill="none" fill-rule="evenodd">
        <path fill="#00684B" d="M0 18.458C0 8.433 8.092.308 18.075.308c9.98 0 18.075 8.125 18.075 18.15 0 10.023-8.094 18.15-18.075 18.15C8.092 36.608 0 28.48 0 18.458M70.073 14.126l-.002 4.64c0 1.6.384 2.585 1.422 3.696l.444.472.466-.472c1.02-1.093 1.396-2.13 1.396-3.696v-4.64h3.031v4.64c0 3.996-2.047 5.535-3.213 6.771h-3.363c-1.165-1.236-3.212-2.775-3.212-6.771v-4.64h3.031zM42.199 11.479h3.032v5.614h.841l3.174-5.614h3.512l-3.235 5.717c2.705.34 3.04 1.521 3.04 3.792v4.55H49.53v-4.49c0-1.291-.726-1.309-1.996-1.309H45.23v5.798h-3.032V11.48zM109.676 16.774L106.767 16.774 106.767 25.536 103.736 25.536 103.736 16.774 100.827 16.774 100.827 14.126 109.676 14.126zM61.665 14.126L64.696 14.126 64.696 25.537 54.907 25.537 54.907 14.126 57.938 14.126 57.938 23.042 61.665 23.042zM87.373 16.621L82.208 16.621 82.208 18.568 87.056 18.568 87.056 21.064 82.208 21.064 82.208 23.042 87.481 23.042 87.481 25.537 79.175 25.537 79.175 14.126 87.373 14.126zM96.038 17.05v-2.923h3.03v3.121c0 2.584-1.028 3.588-3.38 3.831v4.458h-3.03v-4.46c-3.019-.281-3.379-1.467-3.379-3.829v-3.121h3.031v3.06c0 1.293.727 1.308 2.002 1.308 1.286 0 1.726-.106 1.726-1.445M128.262 21.535v-7.41h3.029v7.609c0 3.042-1.425 3.895-4.759 3.895-4.545 0-5.028-1.158-5.028-3.895v-7.609h3.03v7.547c0 1.293.725 1.31 1.998 1.31 1.288 0 1.73-.107 1.73-1.447" transform="translate(.778 .4)"/>
        <path fill="#00684B" d="M128.262 21.535v-7.41h3.029v7.609c0 3.042-1.425 3.895-4.759 3.895-4.545 0-5.028-1.158-5.028-3.895v-7.609h3.03v7.547c0 1.293.725 1.31 1.998 1.31 1.288 0 1.73-.107 1.73-1.447M145.741 14.126h3.03v4.29h.909l3.057-4.29h3.532l-3.143 4.403c2.648.347 2.976 1.53 2.976 3.783v3.225h-3.032v-3.165c0-1.292-.726-1.31-1.996-1.31h-2.304v4.475h-3.029V14.126zM136.668 19.54h3.696v-2.767h-3.696v2.767zm3.657 5.997l-2.392-3.35h-1.265v3.35h-3.03v-11.41h9.755v8.06h-1.927l2.386 3.35h-3.527zM120.742 14.126L117.104 14.126 117.104 25.537 114.075 25.537 114.075 14.126 110.44 14.126 110.44 11.479 120.742 11.479zM126.672 11.479L128.262 9.883 129.851 11.479 128.262 13.075zM122.944 11.479L124.533 9.883 126.123 11.479 124.533 13.075z" transform="translate(.778 .4)"/>
        <path fill="#C99C00" d="M17.214 34.749l-1.817 1.14-1.2-2.924 3.017 1.784zm-2.9-8.02l2.92 1.813-1.724 1.173-1.196-2.986zm-.095-6.3l3.061 1.857-1.795 1.298-1.266-3.155zm4.854 5.066l2.988-1.863-1.163 3.058-1.825-1.195zM14.27 29.85l5.605 3.414-1.696 1.1-2.911-1.637-.998-2.877zm2.193.2l5.54-3.365-.89 2.705-2.89 1.961-1.76-1.301zm-2.19-6.352l5.649 3.261-1.863 1.274-2.816-1.712-.97-2.823zm2.108.197l5.627-3.399-1.018 2.908-2.742 1.666-1.867-1.175zm-.173-3.253h3.755l-1.784 1.414-1.971-1.414zm2.864 10.92l2.988-1.86-1.163 3.055-1.825-1.195zm-.993-13.058s-3.024-8.765-3.6-10.518c-.234-.716-.334-1.331.122-1.929l3.475-4.574 3.474 4.574c.455.598.355 1.213.122 1.93-.576 1.752-3.593 10.517-3.593 10.517zm17.106 1.002l-16.044.004 7.307-3.778c4.074-2.106 5.426-.342 6.914 1.51l1.823 2.264zm-16.397-.808l5.04-9.07c.653-1.177 2.325-1.767 3.79-.883l5.663 3.418-2.84.006c-1.25.002-2.244.483-3.147 1.063l-8.506 5.466zm-17.822.808l1.822-2.264c1.489-1.852 2.84-3.616 6.915-1.51l7.306 3.778-16.043-.004zm16.397-.808l-8.507-5.466c-.902-.58-1.898-1.061-3.147-1.063l-2.84-.006 5.664-3.418c1.464-.884 3.135-.294 3.79.883l5.04 9.07zm-1.23 17.8l5.87-3.485-1.121 3.385c-.897.137-1.817.21-2.754.21-.675 0-1.34-.037-1.994-.11z" transform="translate(.778 .4)"/>
    </g>
</svg>
