<svg xmlns="http://www.w3.org/2000/svg" width="139" height="33" viewBox="0 0 139 33">
    <g fill="none" fill-rule="evenodd">
        <path fill="#00C4B3" d="M118.445 22.013l2.754 2.905 1.921-2.055c.046.048.116.118.186.166.069.047.115.118.185.165.07.07.116.118.185.189l.185.189c.533.543.95 1.157 1.273 1.771.301.614.51 1.229.602 1.819.07.59.046 1.11-.093 1.582-.138.449-.393.827-.763 1.11l-2.385 1.819-3.17-3.52c-.44-.472-.788-.968-1.066-1.487-.277-.52-.486-1.04-.601-1.535-.116-.52-.14-1.016-.093-1.465.046-.472.208-.873.463-1.228.023-.047.07-.07.093-.118.023-.047.046-.095.092-.118.046-.024.07-.071.116-.095.046-.023.07-.07.116-.094zm8.772-8.834c.394-.023.787.024 1.227.142.394.071.81.19 1.227.354.417.166.833.378 1.227.638.416.26.787.543 1.157.898l5.324 5.054-4.699 3.614c-.278.212-.555.378-.88.52-.324.141-.648.236-.971.307-.325.07-.649.094-.996.094s-.671-.024-1.018-.094c-.37-.071-.718-.166-1.065-.284-.347-.142-.694-.284-1.019-.472-.347-.19-.671-.402-.972-.638-.3-.236-.602-.52-.88-.803-.069-.047-.115-.118-.184-.189-.07-.071-.116-.142-.186-.213-.046-.07-.115-.141-.162-.212l-.08-.106-.082-.107 2.408-2.598-3.38-3.377c.023-.071.046-.142.093-.213l.115-.212c.023-.048.07-.119.116-.19.046-.07.093-.117.139-.188.208-.26.44-.496.694-.709.255-.212.533-.401.834-.543.3-.142.601-.26.949-.33.347-.095.694-.143 1.064-.143zm-14.79-.047c.207-.023.439 0 .694.024.231.047.463.142.717.26.255.141.486.283.741.472.254.189.51.402.74.661l.163.166c.07.07.116.118.162.189.046.07.092.118.139.189.046.07.092.118.139.189l-1.343 2.48 2.546 2.763-.104.213-.035.07-.07.142c-.045.047-.068.095-.092.142-.139.189-.277.33-.416.449-.162.118-.324.212-.486.283-.163.07-.348.094-.533.118-.185.024-.37 0-.578-.024-.209-.047-.417-.094-.625-.188-.232-.095-.44-.19-.649-.331-.208-.142-.416-.284-.625-.473-.185-.165-.393-.377-.601-.59l-2.755-3.07 1.111-2.835c.093-.212.185-.378.301-.543.116-.165.255-.283.393-.402.14-.118.302-.212.487-.26.185-.047.37-.094.578-.094zM116.268.236l4.351 4.134c.625.59 1.135 1.299 1.528 2.078.37.78.625 1.606.764 2.456.116.827.116 1.654-.023 2.41-.139.755-.394 1.44-.787 2.007-.046.071-.093.118-.139.19-.046.07-.093.14-.139.188l-.139.165c-.069.048-.116.095-.162.142l-3.171-3.236-1.69 3.094-.185-.141c-.07-.048-.116-.095-.185-.142l-.162-.165-.162-.166c-.486-.496-.903-1.086-1.227-1.7-.324-.614-.579-1.3-.74-1.984-.163-.685-.232-1.417-.209-2.102.023-.709.162-1.394.417-2.032l2.06-5.196z" transform="translate(.667 .943)"/>
        <path fill="#231F20" d="M97.982 18.517c.695.26 1.713.402 3.079.449 1.157 0 1.806-.307 1.921-.945 0-.047.023-.094.023-.141 0-.496-.555-.827-1.643-1.04-1.574-.378-2.384-1.086-2.384-2.149 0-.165.023-.33.046-.52.394-1.89 1.875-2.81 4.421-2.81.95.047 1.782.26 2.477.614l-.347 1.724c-.695-.26-1.528-.402-2.5-.449-1.042 0-1.62.284-1.736.85 0 .048-.023.095-.023.119 0 .448.486.826 1.458 1.133 1.69.378 2.523 1.11 2.523 2.173 0 .166-.023.308-.046.473-.394 1.89-1.921 2.81-4.583 2.81-1.32-.118-2.338-.33-3.033-.637l.347-1.654zM93.47 20.62l1.203-5.739c.047-.189.047-.33.047-.472 0-.59-.301-.874-.926-.874H92.31l-1.48 7.085h-2.27l1.852-8.904 3.611-.094c1.99 0 3.01.779 3.01 2.338 0 .307-.047.638-.116.992l-1.18 5.668h-2.27zm-7.523-7.109h-1.481c-.834 0-1.32.472-1.459 1.44l-.532 2.599c-.047.165-.047.33-.047.472 0 .59.324.874.95.874.509 0 1.018-.094 1.55-.283l1.019-5.102zm-1.389 6.684c-.718.402-1.481.591-2.268.591-1.482 0-2.2-.709-2.2-2.126 0-.354.047-.756.14-1.205l.509-2.503c.463-2.22 1.898-3.33 4.282-3.33l3.565.094-1.875 8.975H84.44l.116-.496zm-9.097.425l1.204-5.739c.046-.189.046-.33.046-.472 0-.59-.3-.874-.926-.874h-1.481l-1.482 7.085h-2.268l1.852-8.904 3.587-.094c1.991 0 3.01.779 3.01 2.338 0 .307-.047.638-.116.992l-1.18 5.668H75.46zM71.062 9.448c-.07.307-.231.59-.51.803-.277.236-.555.33-.856.33-.3 0-.555-.118-.717-.33-.116-.166-.185-.355-.185-.567 0-.071 0-.166.023-.26.07-.307.231-.59.51-.803.277-.236.555-.33.856-.33.3 0 .555.117.717.33.116.165.185.354.185.543 0 .095 0 .19-.023.284zM70.6 11.62l-1.875 8.975h-2.268l1.875-8.975h2.268zm-3.565-2.504l-.393 1.89h-4.49l-.626 2.952h3.68l-.393 1.89h-3.68l-.995 4.747h-2.269l2.384-11.48h6.782zm-18.078 6.259h2.662l.116-.52c.046-.189.046-.354.046-.496 0-.637-.347-.944-1.064-.944-.903.023-1.459.52-1.644 1.44l-.116.52zm3.89 4.842c-1.112.307-2.246.472-3.427.472-2.175 0-3.263-.78-3.263-2.338 0-.283.023-.567.092-.898l.533-2.598c.463-2.22 1.898-3.33 4.282-3.33 1.99 0 3.009.78 3.009 2.338 0 .307-.046.638-.116.992l-.416 1.984h-4.908l-.138.59c-.024.143-.047.26-.047.379 0 .661.44.968 1.343.968.208 0 .416.024.648.024.949 0 1.875-.095 2.754-.307l-.347 1.724zm-7.2-8.597l-1.898 9.093c-.44 2.15-1.875 3.236-4.259 3.236-.162 0-.324.024-.486.024-.88 0-1.62-.142-2.199-.402l.347-1.7c.486.165 1.065.259 1.76.259.3 0 .625-.024.972-.047.88 0 1.412-.449 1.597-1.347l.116-.52c-.625.332-1.273.52-1.945.52h-.3c-1.482-.047-2.2-.779-2.2-2.172 0-.355.047-.732.14-1.158l1.203-5.74h2.268l-1.203 5.74c-.047.19-.047.378-.047.52 0 .614.301.921.926.921.51 0 1.019-.095 1.551-.283l1.435-6.897h2.222v-.047zm-8.541-2.173c-.07.307-.231.59-.51.803-.277.236-.555.33-.856.33-.3 0-.555-.118-.717-.33-.116-.166-.185-.355-.185-.567 0-.071 0-.166.023-.26.07-.307.231-.59.509-.803.278-.236.556-.33.856-.33.301 0 .556.117.718.33.116.165.185.354.185.543 0 .095 0 .19-.023.284zm-.463 2.173l-1.875 8.975H32.5l1.875-8.975h2.268zm-9.05-2.504l-1.551 7.44 3.888-4.936h2.547l-3.75 4.582 1.875 4.416h-2.547l-1.851-4.77-.996 4.77H22.94l2.384-11.478h2.269v-.024zm-5 4.393h-.718c-.555 0-1.041.095-1.389.283l-1.412 6.803h-2.268l1.713-8.102c.625-.566 1.875-.85 3.773-.85l.694.024-.393 1.842zm-5.81-4.488c-.07.307-.232.59-.51.803-.277.237-.555.331-.856.331-.3 0-.555-.118-.718-.33-.115-.166-.185-.355-.185-.567 0-.071 0-.166.023-.26.07-.307.232-.59.51-.803.277-.236.555-.33.856-.33.301 0 .556.117.718.33.115.165.185.354.185.567 0 .094 0 .165-.023.26zm-3.68 0c-.07.307-.232.59-.51.803-.278.237-.555.331-.856.331-.301 0-.556-.118-.718-.33-.116-.166-.185-.355-.185-.567 0-.071 0-.166.023-.26.07-.307.232-.59.51-.803.277-.236.555-.33.856-.33.3 0 .555.117.717.33.116.165.185.354.185.567 0 .094 0 .165-.023.26zm-1.135 2.599l-1.204 5.739c-.046.165-.046.33-.046.473 0 .59.324.873.95.873h1.48l1.482-7.085h2.268l-1.851 8.904-3.611.094c-1.991 0-3.01-.779-3.01-2.338 0-.307.047-.638.116-.992l1.18-5.668h2.246zM8.38 9.117l-.393 1.89h-2.87l-1.991 9.589H.88l1.99-9.59H0l.393-1.89H8.38z" transform="translate(.667 .943)"/>
    </g>
</svg>
