<svg xmlns="http://www.w3.org/2000/svg" width="159" height="37" viewBox="0 0 159 37">
    <g fill="none" fill-rule="evenodd">
        <path fill="#E31D93" d="M15.012 6.985c-.198.198-.198.519 0 .716l2.089 2.082c.198.198.52.198.718 0l2.088-2.081c.199-.198.199-.52 0-.716L17.82 4.904c-.198-.197-.52-.197-.718 0l-2.089 2.081zm1.455 7.098l-5.77-5.75c-.55-.546-.55-1.433 0-1.98l5.77-5.748c.548-.547 1.437-.547 1.986 0l5.77 5.749c.547.547.548 1.433 0 1.98l-5.77 5.749c-.549.546-1.438.546-1.986 0z" transform="translate(.778 .171)"/>
        <path fill="#194F90" d="M56.177 22.084c-.07-.237-.286-.408-.545-.408h-2.958c-.244 0-.451.154-.531.369l-.644 2.158c-.058.195-.218.344-.417.389l-2.152.01c-.283-.03-.503-.27-.503-.56 0-.06.009-.116.026-.169l4.094-12.689c.073-.226.287-.39.538-.39h2.133c.25 0 .463.163.536.389l4.085 12.676c.02.065.03.123.03.183 0 .312-.254.563-.566.563h-1.97c-.26 0-.479-.175-.544-.414l-.612-2.107zm-3.154-2.988h2.287l-1.127-3.884-1.16 3.884zm69.673-8.302c.34 0 .606.198.606.453v1.962c0 .254-.265.453-.606.453h-3.175c-.304.003-.549.249-.548.553V24c0 .339-.2.604-.453.604h-1.972c-.254 0-.453-.265-.453-.604l-.002-9.786c-.006-.312-.25-.55-.546-.553h-3.176c-.34 0-.606-.198-.606-.451v-1.964c0-.255.265-.452.606-.452l4.177-.001h6.148zm34.544 0c.254 0 .453.265.453.603v12.604c0 .339-.198.604-.452.604h-1.972c-.254 0-.453-.265-.453-.604V16.84l-3.061 4.998c-.137.238-.626.242-.785 0l-3.073-5.015v7.178c0 .339-.2.604-.454.604h-1.971c-.254 0-.454-.265-.454-.604V11.397c0-.338.2-.603.454-.603l1.426.003c.203 0 .494.167.63.476l3.79 6.77 3.81-6.678c.096-.346.42-.568.663-.568h1.439l.01-.003zm-19.363 11.2c.34 0 .605.2.605.452v1.704c0 .253-.266.452-.605.452l-2.643.003h-5.016c-.255 0-.453-.265-.453-.603V11.397c0-.338.198-.603.453-.603h1.881c.256 0 .455.265.455.604v.59l.002 3.338v6.062c0 .338.2.604.454.604h1.11l3.757.003zm-40.89-3.92l4.739 5.87c.138.162.181.337.115.478-.052.113-.166.183-.296.183h-2.4c-.357 0-.562-.241-.8-.52l-1.385-1.68-2.347-2.863-.886 1.16v3.3c0 .338-.2.603-.453.603h-1.972c-.254 0-.452-.265-.452-.604V11.397c0-.338.198-.603.452-.603h1.972c.254 0 .453.265.453.603v4.55s.02.182.109.182c.04 0 .162-.03.408-.32l2.94-3.49.832-1.007c.237-.278.443-.518.8-.518h2.4c.156 0 .318.1.382.24.036.078.073.236-.087.423l-4.575 5.354c-.491.518-.009 1.183.051 1.262zm45.358-7.28c.255 0 .454.265.454.603v12.604c0 .339-.199.604-.453.604h-1.971c-.254 0-.453-.265-.453-.604V11.397c0-.338.199-.603.453-.603h1.97zm-15.142 0c.255 0 .454.265.454.603v12.604c0 .339-.2.604-.454.604h-1.97c-.255 0-.455-.265-.455-.604V11.397c0-.338.2-.603.455-.603h1.97zM81.428 19.06l-.298.003c-.254 0-.454.266-.454.603v.406s-.003 0-.003 3.338v.59c0 .339-.199.605-.454.605h-1.882c-.254 0-.454-.266-.454-.604V11.398c0-.339.2-.604.454-.604h5.015l2.643.004c.341 0 .607.198.607.451v1.704c0 .254-.266.451-.607.451l-3.755.004h-1.11c-.254 0-.454.265-.454.603v1.958c0 .227.213.409.502.444h3.805c.34 0 .607.2.607.453v1.743c0 .254-.268.452-.607.452h-3.555zm-14.43-.988l4.738 5.872c.138.16.18.336.115.477-.051.113-.165.183-.296.183h-2.399c-.357 0-.564-.241-.801-.52l-1.385-1.68-2.346-2.863-.886 1.16v3.3c0 .338-.2.603-.454.603h-1.97c-.256 0-.454-.265-.454-.604V11.397c0-.338.198-.603.453-.603h1.97c.256 0 .455.265.455.603v4.55s.02.182.108.182c.041 0 .163-.03.409-.32l2.94-3.49.83-1.007c.24-.278.445-.518.802-.518h2.399c.158 0 .318.1.382.24.037.078.074.236-.087.423l-4.574 5.354c-.492.518-.009 1.183.05 1.262zm8.323-7.28c.254 0 .453.266.453.604v12.604c0 .339-.199.604-.453.604h-1.97c-.256 0-.454-.265-.454-.604V11.397c0-.338.198-.603.453-.603h1.97zM42.66 24.213l-4.085-12.606c-.017-.058-.027-.116-.027-.175 0-.311.253-.563.565-.563l1.949-.003c.278.003.495.173.564.407l2.603 8.902 2.681-8.904c.07-.232.286-.402.542-.402h1.965c.312 0 .565.252.565.563 0 .06-.009.119-.027.173l-4.09 12.616c-.074.224-.286.385-.536.385H43.2c-.253 0-.467-.165-.539-.393zm63.892-5.116h2.286l-1.128-3.884-1.158 3.884zm3.153 2.988c-.071-.237-.287-.408-.544-.408h-2.96c-.243 0-.451.154-.53.369l-.643 2.158c-.058.195-.219.344-.42.389l-2.15.01c-.284-.03-.504-.27-.504-.56 0-.06.01-.116.027-.169l4.093-12.689c.074-.226.287-.39.539-.39H108.746c.25 0 .463.163.537.389l4.085 12.676c.02.065.03.123.03.183 0 .312-.253.563-.566.563h-1.97c-.26 0-.48-.175-.545-.414l-.61-2.107zm-91.25 12.498c-.55.546-1.439.546-1.987 0l-5.772-5.751-5.177-5.16-5.11-5.09c-.547-.547-.547-1.433 0-1.98l5.771-5.749c.548-.546 1.438-.546 1.986 0l5.77 5.75c.548.546.548 1.432 0 1.979l-3.494 3.481c-.323.527-.26 1.222.198 1.678l1.592 1.584 4.296 4.282c.515.514 1.35.514 1.866 0l1.219-1.214 4.724-4.708c.415-.437.473-1.084.176-1.58l-3.53-3.52c-.55-.546-.55-1.432 0-1.98l5.768-5.749c.55-.545 1.438-.546 1.987 0l5.77 5.75c.548.547.548 1.433 0 1.98l-5.772 5.75-4.512 4.498-5.77 5.749zm6.841-17.345c-.198.197-.198.518 0 .716l2.09 2.08c.198.199.52.199.718.001l2.089-2.08c.198-.199.198-.52 0-.717l-2.09-2.081c-.198-.198-.52-.198-.718 0l-2.089 2.08zm-15.675.713c.198-.198.198-.519 0-.717l-2.088-2.08c-.199-.199-.521-.199-.72-.001l-2.088 2.081c-.198.197-.198.518 0 .717l2.089 2.08c.198.198.52.198.719 0l2.088-2.08zm7.487 2.502c.198-.197.52-.197.718 0l2.09 2.081c.197.198.197.52-.002.717l-2.088 2.08c-.199.198-.52.198-.718 0l-2.089-2.08c-.199-.198-.199-.519 0-.717l2.089-2.08z" transform="translate(.778 .171)"/>
    </g>
</svg>
