<svg xmlns="http://www.w3.org/2000/svg" width="151" height="40" viewBox="0 0 151 40">
    <g fill="none" fill-rule="evenodd">
        <path fill="#10539E" d="M43.058 1.05c-.08-.305-.406-.59-.728-.632l-.788-.056C40.146.259 38.455.23 37.26.112c-1.872-.184-4.812.015-7.215.357-2.405.341-7.227.519-9.17.487-1.949-.032-2.719-.153-3.43-.318C16.73.473 13 .487 11.79.39 11.079.332 9.26.224 6.828.11L5.13.03C4.377-.005 3.787.6 3.812 1.376c.03.774-.022 3.04.054 5.09l.01.324c.072 2.049-.04 4.339-.01 5.09.023.753.44 1.497.923 1.658 0 0 .194 0 .54.111.35.114 1.42.666 1.819.827.397.16 1.059-.473 1.364-.698.306-.225 3.776-2.987 8.085-5.267 3.285-1.739 8.822-3.772 11.27-4.702.762-.29 2.526-.026 3.36.522.837.55 5.578 1.229 6.054 1.388.479.16 2.199.6 2.754.792.296.102 1.048.043 1.685-.032l.56-.07c.266-.045.507-.328.54-.629l.068-.74c.072-.841.158-2.362.166-3.182.004-.6.004-.809.004-.809" transform="translate(.333 .4)"/>
        <path fill="#E3051A" d="M.7 20.96c-.644.552-.725 1.31-.175 1.686.548.376 1.273.448 1.614.163l.874-.673c.91-.699 2.088-1.564 3.138-2.186 2.057-1.216 5.39-2.78 8.48-4.44 3.092-1.66 6.604-3.344 7.86-4.193l1.256-.85c.436-.329 1.198-.467 1.699-.307l1.38.514c1.384.513 2.008.828 2.71.839.71.012 1.79-.047 2.102.036.32.082 2.575 1.296 4.048 2.193 1.474.895 3.79 2.325 5.657 3.227 1.865.903 1.726.626 2.279.71l.553.089c1.122.287 1.41.1 1.82-.416l.563-.772c.234-.32.435-.61.546-.794.37-.637.604-1.166.432-1.55-.172-.385-1.855-1.399-2.928-1.952-1.071-.554-2.518-1.367-5.54-2.063-3.015-.693-7.06-1.584-8.434-1.76-1.37-.178-2.989-.77-3.576-1.01-.59-.24-1.34-.558-2.302-.345-.964.213-1.62.386-2.24.528-.621.14-1.656.614-2.378.985-.724.369-4.47 2.123-5.006 2.498-.538.371-1.91 1.022-2.938 1.615-1.027.595-3.73 2.215-4.906 3.065-1.178.852-2.28 1.598-3.3 2.376C2.96 18.95 1.824 20 1.262 20.481L.7 20.96z" transform="translate(.333 .4)"/>
        <path fill="#079454" d="M10.417 19.34c-.139-.314-.609-.342-1.044-.06l-.745.443c-.35.207-.691.4-.938.517-.767.368-2.186 1.556-2.805 2.608-.574.972-.578 2.346-.578 3.938 0 1.529-.096 2.92-.01 5.351.04 1.064-.057 2.165-.019 3.302l.053 1.463c.026.646.378 1.249.788 1.337l.471.01c.47.01 1.988-.04 2.565-.11.578-.065 1.635.107 2.613.275.98.17 2.187.268 3.395.211 1.205-.056 5.673-.134 8.324-.012 2.652.123 5.594-.056 7.113-.11 1.52-.049 3.266-.429 4.31-.565 1.047-.134 2.508-.415 3.056-.404l3.608.061 1.415.023c.708.013 1.26-.64 1.232-1.452l-.006-1.178c-.001-.343.003-.454.01-.703.023-.622.092-1.95.15-3.07l.04-.85c.018-.368-.456-.847-1.174-.932 0 0-.1-.036-1.463-.15-1.888-.156-4.124-.305-4.886-.275-1.364.055-3.712.055-4.95.112-1.236.054-2.009-.4-4.846-.448-2.842-.048-4.327-.353-7.158-.14-2.828.213-5.162.248-5.975.386-.809.14-2.133-.936-2.195-2.65-.06-1.712-.13-5.184-.241-6.055l-.11-.873z" transform="translate(.333 .4)"/>
        <path fill="#3A3A3A" d="M62.3 12.76c.158 0 .238.084.238.25v1.783c0 .167-.08.25-.238.25h-5.705v3.15h5.212c.175 0 .254.082.254.25v1.698c0 .167-.08.25-.254.25h-5.212v2.983H62.3c.158 0 .238.084.238.25v1.783c0 .166-.08.25-.238.25h-7.961c-.159 0-.239-.084-.239-.267V13.01c0-.166.08-.25.239-.25h7.96zM77.586 16.976c.493.483.747 1.416.747 2.799l-.016 5.615c0 .183-.08.267-.238.267h-1.875c-.159 0-.239-.084-.239-.267v-4.515c-.08-2.45-.143-2.433-1.51-2.5-.46 0-.89.034-1.286.1.143.434.206 1.017.206 1.767l-.016 5.148c0 .183-.079.267-.222.267h-1.891c-.143 0-.222-.084-.222-.267v-5.082c0-.95-.048-1.4-.318-1.65-.27-.266-.509-.282-1.208-.282h-1.08v7.014c0 .183-.08.267-.239.267h-1.875c-.159 0-.238-.084-.238-.267v-8.614c0-.133.063-.217.206-.25.827-.183 1.843-.283 3.051-.283 1.192 0 2.145.183 2.845.533.905-.367 1.827-.55 2.764-.55 1.272 0 2.162.25 2.654.75M83.974 12.76c.159 0 .238.084.238.25v12.38c0 .183-.08.267-.238.267H82.1c-.159 0-.238-.084-.238-.267V13.01c0-.166.079-.25.238-.25h1.875zM92.935 21.725h-1.827c-.826 0-1.112.266-1.112 1 0 .782.334 1.016 1.35 1.016.684 0 1.208-.05 1.59-.167v-1.85zm1.542-4.783c.54.467.81 1.183.81 2.167v5.765c0 .266-.11.433-.35.516-.969.233-2.177.35-3.606.35-1.335 0-2.003-.067-2.702-.45-.683-.4-.953-1.15-.969-2.432.016-1.067.27-1.783.779-2.167.524-.383 1.35-.566 2.478-.566h2.018v-.6c0-.766-.492-1.15-1.493-1.15h-2.876c-.175 0-.223-.05-.223-.25V16.76c0-.183.048-.216.223-.266.81-.167 1.764-.25 2.876-.25 1.478 0 2.495.233 3.035.7zM100.928 12.76c.159 0 .239.084.239.267v6.498l2.272-3.032c.08-.117.19-.167.333-.167h2.145c.271 0 .318.1.144.317l-2.559 3.349 3.258 5.215c.159.3.063.45-.27.45h-2.002c-.175 0-.286-.067-.35-.184l-2.971-4.915v4.832c0 .183-.08.267-.239.267h-1.875c-.159 0-.238-.084-.238-.267V13.027c0-.183.08-.266.238-.266h1.875zM111.078 19.59v5.339h3.698c2.107 0 3.053-.592 3.053-2.661 0-2.035-.847-2.679-2.654-2.679h-4.097zm0-6.018v5.183h3.45c1.127 0 1.907-.14 2.322-.435.431-.296.647-.974.647-2 0-1.061-.266-1.792-.796-2.174-.531-.383-1.377-.574-2.538-.574h-3.085zm6.303-.087c.68.504 1.028 1.443 1.028 2.783 0 1.67-.481 2.626-1.427 2.87v.034c1.178.226 1.759 1.27 1.759 3.096 0 1.356-.332 2.278-.996 2.782-.646.487-1.658.73-3.002.73-2.106 0-3.582-.017-4.428-.069-.116 0-.166-.052-.166-.156v-12.61c0-.103.05-.155.166-.155.846-.053 2.14-.07 3.898-.07 1.442 0 2.488.26 3.168.765zM127.842 21.416h-3.068c-1.277 0-1.775.47-1.775 1.651 0 1.41.515 1.896 2.24 1.896 1.144 0 2.023-.07 2.603-.208v-3.34zm.88-2.418v6.104c0 .21-.1.348-.3.4-.58.192-1.691.279-3.333.279-1.111 0-1.89-.191-2.338-.592-.432-.4-.648-1.095-.648-2.122 0-1.739.797-2.469 2.671-2.469h3.068v-1.496c0-1.478-.978-2-2.686-2h-2.057c-.1 0-.15-.052-.15-.156v-.383c0-.087.05-.156.133-.173.647-.088 1.327-.122 2.074-.122 2.239 0 3.565.713 3.565 2.73zM138.403 16.911c.613.54.829 1.496.829 3.183v5.443c0 .105-.05.157-.166.157h-.564c-.1 0-.15-.052-.15-.157v-5.443c0-1.34-.148-2.122-.613-2.522-.448-.4-.896-.47-1.841-.47h-2.77v8.435c0 .105-.05.157-.15.157h-.58c-.1 0-.149-.052-.149-.157v-8.904c0-.105.067-.157.183-.174.796-.122 1.907-.191 3.35-.191 1.343 0 2.023.104 2.62.643M143.473 12.807c.116 0 .166.052.166.174v6.8l3.267-3.287c.066-.07.166-.105.298-.105h.763c.183 0 .216.07.083.21l-3.45 3.408 4.462 5.443c.116.087.033.244-.183.244h-.613c-.133 0-.232-.052-.282-.14l-4.345-5.356v5.322c0 .122-.05.174-.166.174h-.564c-.1 0-.15-.052-.15-.174V12.98c0-.121.05-.173.15-.173h.564z" transform="translate(.333 .4)"/>
    </g>
</svg>
