<svg xmlns="http://www.w3.org/2000/svg" xmlns:xlink="http://www.w3.org/1999/xlink" width="97" height="54" viewBox="0 0 97 54">
    <defs>
        <path id="prefix__a" d="M0.095 0.085L22.821 0.085 22.821 17.726 0.095 17.726z"/>
        <path id="prefix__c" d="M0.036 0.092L7.368 0.092 7.368 16.649 0.036 16.649z"/>
        <path id="prefix__e" d="M0.021 0.011L7.676 0.011 7.676 24.248 0.021 24.248z"/>
    </defs>
    <g fill="none" fill-rule="evenodd">
        <path fill="#00539A" d="M21.197 25.722S8.289 24.796 0 16.012l13.158-7.615s.26 11.967 12.439 14.523c13.01 2.732 13.86-10.023 13.86-10.023l2.161 3.521s-4.926 11.252-18.107 7.523c-10.268-2.905-12.954-10.67-12.954-10.67l-5.77 3.24s5.69 6.493 16.41 9.21" transform="translate(0 .543)"/>
        <g transform="translate(0 .543) translate(14.197 .012)">
            <mask id="prefix__b" fill="#fff">
                <use xlink:href="#prefix__a"/>
            </mask>
            <path fill="#ED3024" d="M12.85 13.552s-5.463.954-10.09-4.42c0 0 1.763.534 5.093.855 0 0-3.815-1.895-5.46-4.321 0 0 1.323.603 5.315.873 0 0-.581-.532-2.313-1.426C1.31 2.642.095.085.095.085c1.972 1.717 4.52.771 12.157 3.273 9.646 3.157 10.423 6.621 10.56 8.63.19 2.807-2.58 5.738-2.58 5.738s1.56-7.15-4.428-10.314C9.36 4.01 3.092 2.543 3.092 2.543s.368.61 2 1.567c0 0 .752.411 1.123.597 2.198 1.03 3.537 1.516 4.03 2.71 0 0-2.384.578-4.903-.273 0 0 1.736 1.752 5.03 3.694 0 0-2.121.636-4.64-.215 0 0 2.549 2.934 7.118 2.93" mask="url(#prefix__b)"/>
        </g>
        <path fill="#00539A" d="M27.81 31.822v8.636c.547 0 1.118-.367 1.714-1.1.762-.962 1.144-2.272 1.144-3.924 0-2.408-.953-3.612-2.859-3.612m0 13.189v7.064h-5.36v-24.24h4.11c2.834 0 5.12.68 6.86 2.041 1.738 1.36 2.608 3.234 2.608 5.62 0 3.098-1.203 5.557-3.609 7.38-1.405 1.046-2.942 1.757-4.609 2.135M43.473 39.797v5.558c0 1.006.215 1.781.644 2.324.429.545.964.816 1.608.816.214 0 .512-.02.893-.062v3.548c-.476.063-.953.094-1.43.094-1.548 0-2.905-.418-4.072-1.256-1.763-1.256-2.645-3.286-2.645-6.091v-4.93h-1.429v-3.925h1.43V29.52h4.823v6.354h3.323v3.924h-3.145zM53.987 39.797v5.558c0 1.006.214 1.781.642 2.324.429.545.964.816 1.608.816.215 0 .513-.02.894-.062v3.548c-.477.063-.953.094-1.43.094-1.548 0-2.905-.418-4.073-1.256-1.762-1.256-2.644-3.286-2.644-6.091v-4.93h-1.429v-3.925h1.43V29.52h4.823v6.354h3.323v3.924h-3.144z" transform="translate(0 .543)"/>
        <path fill="#ED3024" d="M63.36 49.985c.76-.076 1.408-.417 1.953-1.03.921-1.006 1.418-2.632 1.418-4.948 0-2.5-.681-4.414-2.01-5.787-.41.14-.865.219-1.361.244v11.521zm2.55-16.809c0-1.978-.834-3.013-2.55-3.224V36.4c1.716-.211 2.55-1.246 2.55-3.223zm-3.293-5.341c1.459 0 2.73.35 3.793.974 1.528.921 2.285 2.4 2.285 4.367 0 1.85-.636 3.251-1.93 4.139.604.505 1.129 1.149 1.576 1.928.81 1.378 1.209 2.969 1.209 4.764 0 2.834-.732 4.982-2.266 6.367-1.234 1.121-2.835 1.697-4.77 1.697h-1.94V27.835h2.043z" transform="translate(0 .543)"/>
        <g transform="translate(0 .543) translate(70.793 35.426)">
            <mask id="prefix__d" fill="#fff">
                <use xlink:href="#prefix__c"/>
            </mask>
            <path fill="#ED3024" d="M4.72 5.818c-.29.192-.624.562-.992 1.176-.687 1.108-1.044 2.544-1.044 4.327 0 1.213.169 2.12.479 2.742.254.528.5.665.693.665.343 0 .642-.196.865-.79v-8.12zm0-2.469c0-.88-.345-1.216-1.07-1.216-.538 0-1.102.076-1.693.232l-.417.11V.378l.253-.064c.601-.15 1.279-.222 2.03-.222 2.331 0 3.545 1.262 3.545 3.653v12.9H4.893v-.333c-.208.181-.842.337-1.081.337-1.094 0-1.999-.46-2.728-1.52C.382 14.053.036 12.777.036 11.321c0-2.337.635-4.287 1.927-5.818.864-1 1.783-1.659 2.758-1.932V3.35z" mask="url(#prefix__d)"/>
        </g>
        <g transform="translate(0 .543) translate(88.274 27.823)">
            <mask id="prefix__f" fill="#fff">
                <use xlink:href="#prefix__e"/>
            </mask>
            <path fill="#ED3024" d="M2.669 12.663L5.11 7.847 7.676 7.847 4.17 14.568 7.598 24.248 4.802 24.248 2.669 17.973 2.669 24.248 0.021 24.248 0.021 0.011 2.669 0.011z" mask="url(#prefix__f)"/>
        </g>
        <path fill="#ED3024" d="M86.946 40.113v11.958h-2.648V39.353c0-.511-.125-.948-.36-1.313-.204-.35-.44-.48-.71-.48-.27 0-.518.13-.747.485-.212.365-.323.797-.323 1.308v12.718H79.51V35.596h2.443v.398c.46-.52 1.305-.48 1.5-.48 2.506 0 3.493 1.647 3.493 4.6" transform="translate(0 .543)"/>
    </g>
</svg>
