<svg xmlns="http://www.w3.org/2000/svg" width="115" height="49" viewBox="0 0 115 49">
    <defs>
        <linearGradient id="prefix__a" x1="50%" x2="50%" y1="-2.416%" y2="103.144%">
            <stop offset="0%" stop-color="#008053"/>
            <stop offset="60%" stop-color="#7FCBAE"/>
            <stop offset="100%" stop-color="#00A76D"/>
        </linearGradient>
        <linearGradient id="prefix__b" x1="49.949%" x2="49.949%" y1="-27.932%" y2="96.931%">
            <stop offset="0%" stop-color="#00A76D"/>
            <stop offset="30%" stop-color="#7FCBAE"/>
            <stop offset="55%" stop-color="#00A76D"/>
            <stop offset="83.52%" stop-color="#008053"/>
            <stop offset="86.91%" stop-color="#008558"/>
            <stop offset="92.44%" stop-color="#009264"/>
            <stop offset="99.38%" stop-color="#00A97A"/>
            <stop offset="100%" stop-color="#00AD7D"/>
        </linearGradient>
        <linearGradient id="prefix__c" x1="49.553%" x2="49.553%" y1="226.929%" y2="-2.366%">
            <stop offset="0%" stop-color="#00B387"/>
            <stop offset="100%" stop-color="#00A76D"/>
        </linearGradient>
        <linearGradient id="prefix__d" x1="50.086%" x2="50.086%" y1="105.883%" y2="-172.233%">
            <stop offset="0%" stop-color="#00B387"/>
            <stop offset="100%" stop-color="#00A76D"/>
        </linearGradient>
        <linearGradient id="prefix__e" x1="49.634%" x2="49.634%" y1="233.695%" y2="-84.313%">
            <stop offset="0%" stop-color="#00B387"/>
            <stop offset="100%" stop-color="#00A76D"/>
        </linearGradient>
        <linearGradient id="prefix__f" x1="49.849%" x2="49.849%" y1="96.121%" y2="-438.853%">
            <stop offset="0%" stop-color="#00B387"/>
            <stop offset="100%" stop-color="#00A76D"/>
        </linearGradient>
    </defs>
    <g fill="none">
        <path fill="url(#prefix__a)" d="M0 0.305L46.222 0.305 46.222 47.116 0 47.116z" transform="translate(.111 .086)"/>
        <path fill="url(#prefix__b)" d="M44.815 24.016c0 9.77.402 19.742.402 19.742 0 1.12-.703 1.832-1.607 1.832H3.617c-.904 0-1.507-.814-1.607-1.832 0 0-1.106-8.548-1.106-21.574C.904 9.16 2.01 2.951 2.01 2.951c.1-1.12.703-1.832 1.607-1.832H43.61c.904 0 1.607.814 1.607 1.832 0 0-.402 11.296-.402 21.065z" transform="translate(.111 .086)"/>
        <g>
            <path fill="url(#prefix__c)" d="M31.853 7.836c-2.813 1.73-3.718 1.831-6.833 3.765l.201-.305c1.608-1.832 2.311-2.544 3.417-4.173-2.914.204-7.034.51-9.948 1.12l.2-.305c2.714-1.323 7.738-2.646 10.25-2.952-.603-.915-5.727-3.663-6.933-4.172l.1-.305c3.819.407 8.943 2.239 11.154 3.663.904-.305 1.909-.305 3.617-.509 0 0-.301 1.018-2.11 2.341.503 1.323-.703 8.345-1.608 10.176-.1-2.95-.402-6.716-1.507-8.344z" transform="translate(.111 .086) translate(4.02 5.088)"/>
            <path fill="url(#prefix__d)" d="M10.953 33.175l.1-.306c-1.507-.61-3.014-1.017-4.22-2.238.402-1.12.804-1.934 1.507-3.053l.201-.306c-1.306.204-2.512.713-3.617.916-.905-1.628-1.206-3.765-1.709-5.8l-.1.305c-.301 2.34-.402 4.07 0 5.902-.904.306-1.809.306-2.512.611l-.1.305c1.205.713 2.21 1.323 3.516 1.934.704 1.628 1.508 2.646 2.713 3.867l.1-.306c-.2-.915-.502-1.628-.401-2.645 1.507.508 2.813.814 4.522.814z" transform="translate(.111 .086) translate(4.02 5.088)"/>
            <path fill="url(#prefix__e)" d="M15.173 9.667s-.603 1.12-1.105 2.545h-.1c3.516.508 6.932 1.933 7.736 2.442l-.1.305c-3.718-.61-5.627-.61-7.034-.509-1.407.102-1.608.306-1.608.306-.804 1.73-1.306 4.579-1.406 5.698l-.1.306c-.704-1.629-1.609-4.885-1.609-4.885-1.909 1.018-6.13 5.088-6.13 5.088 2.412-4.783 4.724-6.92 4.724-6.92-.804-.814-3.015-1.22-4.522-1.323l.1-.305c1.005-.305 3.015-.407 4.422-.509h2.612c1.206-1.12 3.417-2.137 4.12-2.239z" transform="translate(.111 .086) translate(4.02 5.088)"/>
            <path fill="url(#prefix__f)" d="M19.695 30.224c-.704 1.017-1.407 1.831-2.21 2.747-1.207.305-2.714.204-3.82.204l-.1.305c.804.407 1.708.712 2.512.916-.703.712-1.708 1.12-2.31 1.628l-.101.305c1.406-.305 3.316-1.017 4.722-1.831.704 0 1.407 0 1.91-.102l.2-.305c-.1-.306-.401-.51-.502-1.018 1.306-1.018 2.311-2.035 3.417-3.155l.2-.305c-1.105.814-2.411 1.832-3.717 2.442-.1-.61-.1-1.12-.201-1.831z" transform="translate(.111 .086) translate(4.02 5.088)"/>
            <g fill="#FFF">
                <path d="M32.054 7.53c-2.813 1.73-3.718 1.832-6.833 3.766 1.809-2.036 2.412-2.85 3.517-4.478-2.813.204-7.034.509-9.948 1.12 2.613-1.425 7.738-2.952 10.45-3.359-.602-.916-5.727-3.663-6.933-4.172 4.02.305 8.943 1.832 11.355 3.358.904-.305 1.909-.305 3.617-.509-.402.815-.502 1.222-2.21 2.341.502 1.323-.704 8.345-1.608 10.176-.1-2.85-.302-6.614-1.407-8.243zM11.154 32.87c-1.608-.611-2.814-1.323-4.12-2.545.402-1.119.804-1.933 1.507-3.053-1.306.204-2.311.306-3.416.611-.905-1.628-1.407-3.256-1.81-5.495-.3 2.34-.401 4.07 0 5.902-1.004.305-1.808.509-2.712.916 1.206.712 2.21 1.323 3.517 1.933.703 1.629 1.507 2.646 2.713 3.867-.302-1.017-.402-1.831-.201-2.95 1.507.508 2.813.712 4.522.813zM15.374 9.362c-.503.713-1.105 1.934-1.306 2.544 4.22.61 7.636 2.748 7.636 2.748-3.718-.712-5.627-.61-7.033-.407-1.407.102-1.608.305-1.608.305-1.005 2.239-1.608 6.004-1.608 6.004-.703-1.628-1.608-4.885-1.608-4.885-1.909 1.018-6.13 5.089-6.13 5.089 2.312-4.783 4.724-6.92 4.724-6.92-.804-.814-3.015-1.221-4.522-1.323.804-.305 2.914-.713 4.522-.814h2.612c1.407-1.221 3.618-2.239 4.32-2.34zM19.896 29.918c-.704 1.018-1.407 1.832-2.211 2.748-1.407.407-2.512.509-3.919.509.804.407 1.708.712 2.613.916-.905.814-1.608 1.424-2.512 1.933 1.406-.305 3.316-1.018 4.722-1.832.704 0 1.407 0 1.91-.101-.1-.407-.201-.713-.302-1.323 1.306-1.018 2.311-2.036 3.417-3.155-1.206.814-2.211 1.425-3.517 2.137-.1-.61-.201-1.12-.201-1.832z" transform="translate(.111 .086) translate(4.02 5.088)"/>
            </g>
        </g>
        <g fill="#000">
            <path d="M17.48 1.026v2.666c-2.482-.308-3.206-.308-6.102-.41-.104 2.256-.104 5.128-.104 6.46 0 1.642 0 7.077.31 9.641H6.414c.31-2.564.31-8 .31-9.64 0-1.333-.103-4.205-.103-6.461-2.793.102-3.62.102-6 .41V1.026h16.86zM35.375 1.026v2.666c-2.586-.308-5.172-.205-7.758-.205-.724 0-1.241 0-2.276.102-.103 1.744-.103 3.795-.103 5.23l6.827-.204v2.769l-6.827-.205c0 1.64.103 3.897.103 5.845 3.517-.102 6.93-.102 10.447-.307v2.666H20.377c.206-2.564.31-8 .31-9.64 0-1.744-.104-6.666-.207-8.82l14.895.103zM48.821 1.026c3.31 0 6.827 1.23 6.827 4.307 0 1.846-1.552 3.487-3.93 4.102 3.206.923 4.86 2.667 4.86 5.025 0 3.692-4.447 5.026-8.688 5.026h-8.585c.207-2.462.31-5.846.31-9.64 0-2.564 0-6.36-.31-8.718 0-.102 9.516-.102 9.516-.102zm-2.793 2.05c-.62 0-1.344.103-1.655.103-.103 2.462-.207 3.795-.207 6.564 0 3.384 0 4.717.104 7.486h2.172c3.62 0 5.379-1.025 5.379-3.076 0-2.462-2.897-3.282-5.172-3.282h-1.034l1.034-2.564h.62c1.552 0 3.62-.718 3.62-2.564.104-1.948-1.24-2.666-4.86-2.666z" transform="translate(.111 .086) translate(56.889 14.171)"/>
        </g>
    </g>
</svg>
