<svg xmlns="http://www.w3.org/2000/svg" width="90" height="42" viewBox="0 0 90 42">
    <g fill="none" fill-rule="evenodd">
        <path fill="#00A3DA" d="M28.625 34.147H1.814c-.899 0-1.624.728-1.624 1.62v4.427h26.536c.893 0 1.899-.724 1.899-1.618v-4.429" transform="translate(.556 .629)"/>
        <path fill="#D8232A" d="M88.766 35.714v-1.567H62.86c-.903 0-1.625.728-1.625 1.622v4.425H87.16c.896 0 1.618-.724 1.618-1.618V35.77c0-.025-.01-.039-.01-.055" transform="translate(.556 .629)"/>
        <path fill="#404042" d="M33.629.045h-3.13v4.758h6.078v-1.82c0-.804-.29-1.495-.876-2.072-.575-.576-1.267-.866-2.072-.866M33.913 6.794h-3.13v23.01h6.078V9.734c0-.807-.29-1.499-.876-2.079-.575-.576-1.267-.86-2.072-.86M55.915 8.242c-2.14-1.33-4.484-1.99-7.027-1.99-2.492.117-4.763.833-6.82 2.162-2.054 1.326-3.079 3.951-3.079 7.871v13.497h6.078V15.074c0-1.385.404-2.388 1.214-3.029.805-.634 1.733-.948 2.78-.948 1.04 0 1.977.314 2.82.948.834.64 1.258 1.644 1.258 3.029v11.762c0 .864.274 1.571.823 2.122.555.546 1.258.824 2.129.824h3.036V16.285c0-4.036-1.077-6.716-3.212-8.043M74.755 20.35c0 1.62-.456 2.887-1.388 3.804-.92.924-2.203 1.386-3.82 1.386-.978 0-1.733-.232-2.255-.694-.52-.516-.784-1.208-.784-2.075 0-.631.207-1.269.61-1.903.46-.462 1.211-.835 2.258-1.12l1.998-.434c1.44-.35 2.579-.72 3.381-1.129v2.165zm3.126-12.453c-1.614-1.1-4.05-1.645-7.293-1.645-2.89 0-5.115.66-6.678 1.99-1.389 1.152-2.2 2.625-2.428 4.41h5.81c.287-.634.75-1.068 1.39-1.297.637-.233 1.362-.349 2.168-.349.749 0 1.58.134 2.475.393.904.256 1.347.82 1.347 1.687 0 1.15-1.28 1.903-3.822 2.248-.521.053-.976.131-1.385.214-.404.088-.754.132-1.042.132-2.201.341-4.01 1.036-5.425 2.075-1.418 1.042-2.127 2.766-2.127 5.189 0 2.596.785 4.456 2.339 5.58 1.57 1.126 3.386 1.685 5.472 1.685 1.046 0 2.24-.07 3.604-.214 1.355-.147 2.642-.534 3.86-1.165 1.16-.579 2.16-1.517 2.993-2.814.839-1.3 1.266-3.1 1.266-5.41v-7.868c0-2.075-.843-3.694-2.524-4.84zM87.653.843C87.074.298 86.38.02 85.567.02H82.45v29.762h6.073V2.879c0-.806-.295-1.49-.87-2.036M25.463 8.242c-2.14-1.33-4.48-1.99-7.033-1.99-2.488.117-4.759.839-6.811 2.162C9.56 9.74 8.54 12.365 8.54 16.285v13.497h6.07V15.074c0-1.385.403-2.388 1.217-3.023.813-.64 1.736-.954 2.774-.954 1.045 0 1.985.314 2.824.954.839.635 1.257 1.638 1.257 3.023v11.765c0 .864.274 1.571.833 2.12.547.545 1.253.823 2.12.823h3.034V16.285c0-4.036-1.07-6.716-3.207-8.043zM1.218 7.636C.637 8.213.349 8.905.349 9.711v20.07h6.074V6.772H3.3c-.811 0-1.5.286-2.081.865zm0-6.747C.637 1.466.349 2.154.349 2.96v1.822h6.074V.024H3.3c-.811 0-1.5.292-2.081.865z" transform="translate(.556 .629)"/>
        <path fill="#F6BC25" d="M59.201 34.147H32.39c-.899 0-1.624.728-1.624 1.62v4.427h26.536c.893 0 1.9-.724 1.9-1.618v-4.429" transform="translate(.556 .629)"/>
    </g>
</svg>
