<svg xmlns="http://www.w3.org/2000/svg" width="114" height="43" viewBox="0 0 114 43">
    <g fill="none" fill-rule="evenodd">
        <path fill="#2B9BDE" d="M57.104 21.774c2.53-.043 5.074 1.017 6.744 2.924.694.807 1.44 1.675 1.608 2.763-1.733.528-3.381 1.313-5.136 1.768-.562-.888-1.451-1.584-2.5-1.784-1.286-.216-2.733-.123-3.78.736-1.678 1.458-1.938 4.268-.475 5.966 1.006 1.297 2.819 1.517 4.341 1.256 1.066-.234 1.892-1.019 2.503-1.883 1.72.595 3.474 1.08 5.21 1.626-.487 1.309-1.422 2.383-2.428 3.327-1.775 1.79-4.36 2.706-6.871 2.563-2.13.024-4.232-.68-5.95-1.923-1.516-1.236-2.711-2.911-3.154-4.832-.756-3-.355-6.462 1.66-8.91 1.866-2.53 5.125-3.807 8.228-3.597zm32.465.485c.04 4.547.043 9.097-.002 13.644.359.054.718.139 1.088.123 2.02-.024 4.041.002 6.062-.016.008 1.464.006 2.927.002 4.393-4.29-.012-8.58.006-12.87-.01-.017-5.995.034-11.99-.027-17.986.607-.217 1.252-.134 1.884-.125 1.286-.031 2.574-.011 3.863-.023zm15.47.128c-.028 4.544-.024 9.087 0 13.633 2.368.008 4.74-.036 7.11.022-.018 1.45-.006 2.9-.008 4.351-4.287.018-8.577-.004-12.865.01.004-6.047-.032-12.097.018-18.144 1.913.08 3.847-.143 5.745.128zm-24.024.002c-.036 1.197-.016 2.394-.016 3.59-2.708.014-5.415.008-8.123.004-.01 1.124-.006 2.247-.002 3.37 2.644-.005 5.288-.007 7.932.003.004 1.305.004 2.61 0 3.916-2.644.016-5.288.004-7.932.004-.006 1.07-.004 2.138-.004 3.209 2.78 0 5.558-.002 8.335 0 .012 1.305.006 2.609.004 3.914-4.683 0-9.365.004-14.05-.002-.016-6.005.033-12.012-.024-18.016.298-.041.59-.12.893-.122 3.432.017 6.865-.008 10.297.017.897.022 1.808-.12 2.69.113zM86.145.437c1.192 2.597 2.372 5.202 3.557 7.803 1.14-2.551 2.038-5.204 3.069-7.8 2.019.01 4.04-.003 6.058.005-1.687 3.61-3.551 7.137-5.334 10.701-.298.675-.843 1.296-.802 2.073.006 1.755-.012 3.51.004 5.264-1.977.063-3.954.008-5.925.134-.07-1.606-.014-3.212-.028-4.818.044-.562-.332-1.015-.586-1.478C83.861 8.385 81.632 4.41 79.363.455c2.26-.032 4.52-.004 6.781-.018zM73.087.053c3.397 6.14 6.732 12.314 10.188 18.418-2.106.041-4.214.037-6.32.002-.31-.748-.652-1.484-.977-2.226-2.363-.027-4.725-.021-7.085-.004-.3.762-.626 1.516-.993 2.248-1.856.005-3.712.011-5.566-.002 3.329-6.14 6.622-12.298 9.957-18.434l.796-.002zM48.038.44c3.093.008 6.186 0 9.277.004 1.151.006 2.322.204 3.347.748 1.625.75 2.802 2.31 3.23 4.027.468 1.768.337 3.713-.416 5.384-.877 1.832-2.844 2.866-4.788 3.163-1.622.228-3.27.28-4.907.3.008 1.468-.004 2.938.01 4.408-1.918.051-3.837.01-5.755.022.008-6.018-.002-12.037.002-18.056zM72.56 7.53c-.512.84-.792 1.788-1.2 2.679-.358.894-.852 1.728-1.126 2.656 1.502-.055 3.017.117 4.51-.105-.798-1.71-1.588-3.436-2.184-5.23zM53.775 4.595c.026 1.778-.008 3.556.02 5.333 1.141-.03 2.374.144 3.42-.416 1.537-.99 1.521-3.546-.01-4.531-1.04-.592-2.29-.35-3.43-.386z" transform="translate(.111 .629)"/>
        <path fill="#FCD100" d="M9.384 3.224c2.63-1.574 5.53-2.76 8.59-3.14 1.84-.092 3.692-.145 5.528.04 2.104.35 4.203.887 6.11 1.864 2.4 1.098 4.47 2.797 6.295 4.676.993 1.007 1.777 2.19 2.488 3.406 2.73 4.514 3.53 10.11 2.265 15.217-.955 3.841-2.99 7.447-5.958 10.104-1.558 1.586-3.468 2.783-5.5 3.673-4.616 2.225-10.069 2.427-14.933.904.71-4.182 1.52-8.35 2.283-12.523 1.549.752 3.292 1.226 5.02.971 2.045-.205 3.969-1.268 5.257-2.862 2.758-3 2.388-8.147-.585-10.873-2.966-3.054-8.507-3.02-11.361.174-1.144 1.106-1.951 2.538-2.233 4.104-1.048 5.59-2.053 11.19-3.1 16.78-.088.605-.21 1.207-.376 1.796-1.362-1.033-2.732-2.071-3.865-3.357-1.515-1.748-2.823-3.697-3.699-5.84C.828 26.483.39 24.513.094 22.531-.498 16.426 1.73 10.066 6.196 5.81c1.007-.924 2.011-1.876 3.188-2.586" transform="translate(.111 .629)"/>
        <path fill="#FCD100" d="M18.027 20.52c-.174-1.416 1.154-2.763 2.565-2.688 1.46-.123 2.773 1.266 2.684 2.696.034.967-.645 1.824-1.463 2.27-.623.353-1.37.208-2.053.195-.945-.463-1.828-1.34-1.733-2.473" transform="translate(.111 .629)"/>
    </g>
</svg>
