<svg xmlns="http://www.w3.org/2000/svg" xmlns:xlink="http://www.w3.org/1999/xlink" width="144" height="29" viewBox="0 0 144 29">
    <defs>
        <path id="prefix__a" d="M0.064 0.055L26.384 0.055 26.384 26.259 0.064 26.259z"/>
    </defs>
    <g fill="none" fill-rule="evenodd">
        <g transform="translate(.889 .714) translate(115.249 .25)">
            <mask id="prefix__b" fill="#fff">
                <use xlink:href="#prefix__a"/>
            </mask>
            <path fill="#008248" d="M3.485 11.522H26.28c.066.537.103 1.08.103 1.639 0 7.235-5.89 13.098-13.16 13.098-.56 0-1.106-.037-1.644-.103v-6.45H1.819c-.583-1.014-1.04-2.109-1.342-3.277h14.391v6.42c4.136-.69 7.395-3.937 8.087-8.058H.16c-.066-.536-.096-1.08-.096-1.63C.064 5.917 5.954.055 13.224.055c.553 0 1.106.037 1.644.103v6.45h9.754c.59 1.013 1.047 2.108 1.349 3.276H11.58v-6.42c-4.136.69-7.395 3.937-8.095 8.058" mask="url(#prefix__b)"/>
        </g>
        <path fill="#008248" d="M48.916 12.42c0 .528-.036 1.035-.11 1.527h-8.147c-.022 2.424 1.187 3.637 3.62 3.637 1.379 0 2.662-.272 3.841-.816l.317 2.608c-1.43.566-3 .845-4.71.845-4.343 0-6.51-2.234-6.51-6.692 0-2.057.545-3.725 1.636-5.01 1.099-1.3 2.603-1.947 4.527-1.947 1.835 0 3.244.565 4.21 1.711.884 1.036 1.326 2.417 1.326 4.136m-3.361-.764c.014-.808-.177-1.44-.583-1.895-.405-.478-.973-.713-1.695-.713-.708 0-1.29.235-1.748.713-.457.47-.73 1.102-.818 1.895h4.844M71.041 12.735c0 2.248-.612 4.048-1.85 5.407-1.29 1.381-3.045 2.079-5.271 2.079-1.74 0-3.377-.213-4.896-.632V.717h3.391v5.642c0 .962-.073 1.814-.213 2.556h.029c.723-1.55 2.042-2.321 3.967-2.321 1.57 0 2.772.536 3.605 1.609.825 1.072 1.238 2.585 1.238 4.532m-3.546.345c0-2.46-.752-3.687-2.249-3.687-.847 0-1.533.418-2.064 1.263-.508.823-.767 1.807-.767 2.946v3.695c.472.154 1.07.235 1.77.235 2.211 0 3.31-1.484 3.31-4.452M83.007 19.956h-3.2c0-.91.044-1.652.133-2.21l-.03-.03c-.317.757-.855 1.359-1.614 1.822-.76.455-1.622.683-2.595.683-1.18 0-2.11-.309-2.78-.926-.649-.61-.98-1.454-.98-2.527 0-1.528.707-2.725 2.123-3.585 1.357-.808 3.185-1.212 5.478-1.212v-.713c0-1.388-.856-2.078-2.573-2.078-1.394 0-2.691.337-3.886 1.028l-.294-2.82c1.518-.545 3.089-.816 4.71-.816 2.013 0 3.45.404 4.321 1.212.737.698 1.106 1.814 1.106 3.342v5.458c0 1.161.029 2.285.08 3.372m-3.464-5.48v-.316c-2.913 0-4.372.69-4.372 2.08 0 .932.523 1.395 1.563 1.395.81 0 1.49-.33 2.042-1 .509-.616.767-1.336.767-2.159M57.889 6.572l-.162 3.32c-.295-.059-.568-.08-.819-.08-1.887 0-2.83 1.6-2.83 4.796v5.348h-3.392V6.858h3.207c0 .83-.081 1.704-.243 2.637h.058c.811-2.108 2.205-3.085 4.18-2.923M97.007 19.956h-3.362v-8.382c0-1.454-.538-2.181-1.614-2.181-.848 0-1.57.418-2.168 1.263-.597.823-.9 1.815-.9 2.975v6.325h-3.39V6.858h3.206c0 .911-.066 1.69-.184 2.322l.022.022c.9-1.756 2.396-2.63 4.476-2.63 2.61 0 3.914 1.395 3.914 4.187v9.197M111.332 19.956L107.093 19.956 103.016 13.477 103.016 19.956 99.632 19.956 99.632.717 103.016.717 103.016 12.316 106.857 6.858 110.985 6.858 106.378 12.838zM23.953 12.42c0 .528-.037 1.035-.103 1.527h-8.154c-.015 2.424 1.194 3.637 3.627 3.637 1.38 0 2.654-.272 3.834-.816l.324 2.608c-1.43.566-3 .845-4.71.845-4.343 0-6.518-2.234-6.518-6.692 0-2.057.546-3.725 1.644-5.01 1.091-1.3 2.603-1.947 4.527-1.947 1.835 0 3.237.565 4.21 1.711.877 1.036 1.32 2.417 1.32 4.136m-3.363-.764c.022-.808-.176-1.44-.582-1.895-.405-.478-.966-.713-1.696-.713-.7 0-1.283.235-1.74.713-.464.47-.737 1.102-.825 1.895h4.843M7.144 21.3c.339.632.509 1.228.509 1.793 0 1.403-1.033 2.542-3.104 3.424l-1.585-1.293c1.024-.684 1.533-1.477 1.533-2.373 0-.492-.147-1.007-.45-1.55h3.097M11.17 14.447c0 1.704-.627 3.093-1.88 4.165-1.306 1.087-3.038 1.631-5.19 1.631-1.357 0-2.574-.14-3.65-.419l.206-3.188c1.239.419 2.485.632 3.738.632 2.064 0 3.096-.786 3.096-2.344 0-.896-.648-1.638-1.931-2.218-2.264-.985-3.473-1.528-3.628-1.631-1.29-.896-1.93-2.182-1.93-3.85 0-1.601.596-2.887 1.798-3.871 1.216-.984 2.883-1.476 4.998-1.476.937 0 2.013.102 3.23.315l-.185 3.005c-1.09-.316-2.16-.478-3.2-.478-.973 0-1.71.206-2.226.61-.508.382-.766.904-.766 1.55 0 .845.655 1.558 1.96 2.138 2.22 1.021 3.421 1.587 3.598 1.712 1.305.896 1.961 2.137 1.961 3.717" transform="translate(.889 .714)"/>
        <path fill="#008248" d="M37.43 19.956L33.191 19.956 29.114 13.477 29.114 19.956 25.73 19.956 25.73 0.717 29.114 0.717 29.114 12.316 32.955 6.858 37.084 6.858 32.476 12.838z" transform="translate(.889 .714)"/>
    </g>
</svg>
