<svg xmlns="http://www.w3.org/2000/svg" width="147" height="40" viewBox="0 0 147 40">
    <g fill="#00428A" transform="translate(.111 .625)">
        <path d="M0.217 15.237L0.217 17.173 3.235 17.173 3.235 24.5 5.486 24.5 5.486 17.161 8.58 17.161 8.58 15.237z"/>
        <ellipse cx="12.545" cy="13.491" rx="1.189" ry="1.185"/>
        <ellipse cx="15.844" cy="13.491" rx="1.189" ry="1.185"/>
        <path d="M30.613 15.237L30.613 24.513 32.749 24.513 32.749 21.735 34.437 20.053 37.34 24.513 39.897 24.513 35.997 18.435 39.091 15.237 36.508 15.237 32.749 19.212 32.749 15.237zM41.048 15.262L43.235 15.262 43.235 24.5 41.048 24.5z"/>
        <ellipse cx="42.148" cy="13.517" rx="1.189" ry="1.185"/>
        <path d="M70.19 5.54v.523s1.395.063 1.395 1.312v8.652l3.567 2V7.324s-.064-1.261 1.369-1.261V5.54h-6.33z"/>
        <path d="M75.561 8.624v.84s3.236 1.339 3.44 5.161h.55V8.636h-.486s-.32.816-1.176.816c-.857 0-2.328-.828-2.328-.828zM71.163 8.305v.74s-3.223.496-3.223 3.376c0 0-.256 2.293 3.645 4.268l4.833 2.65s3.478 1.568 4.553 4.371c1.061 2.803.37 6.537-3.172 8.32-1.445.74-2.736.803-3.197.867 0 0 1.177.586 1.177 2 0 1.427-1.586 3.62-2.276 3.632h-.41s-.063-.077.154-.319c.205-.242 1.19-1.401.946-2.077 0 0-.562.255-1.138.255-.563 0-1.65-.484-1.65-1.758s.972-1.797 1.318-1.797c0 0-.55-.064-2.277-.675-1.726-.624-3.069-1.223-3.95.267h-.461V26.08h.562s1.28 6.04 7.558 6.04c4.348-.013 4.872-3.606 4.872-4.256 0-.663 0-2.676-3.248-4.51-3.248-1.836-6.356-3.53-6.356-3.53s-3.631-1.682-3.631-5.67c.013-4.014 3.683-5.849 5.37-5.849z"/>
        <path d="M71.572 21.544l3.555 2v4.103s-.051 1.236 1.38 1.236v.548h-6.342v-.599s1.394.026 1.394-1.274.013-6.014.013-6.014zM44.091 15.237L46.636 15.237 49.232 19.136 51.905 15.262 54.373 15.262 50.268 20.818 50.268 24.513 48.158 24.513 48.158 20.818zM55.089 15.224L62.531 15.224 62.531 17.11 57.237 17.11 57.237 18.702 60.268 18.702 60.268 20.474 57.237 20.474 57.237 22.678 62.748 22.678 62.748 24.513 55.076 24.513z"/>
        <ellipse cx="73.349" cy="2.227" rx="1.969" ry="1.962"/>
        <path d="M91.367 19.505c-.039 0 1.202-.395 1.202-1.924s-1.458-2.332-3.287-2.332c-1.828 0-4.987-.012-4.987-.012v9.25h5.192s3.478-.012 3.478-2.981c0-1.67-1.56-2-1.598-2zm-4.987-2.51h3.107c1.01 0 .934.841.934.841 0 .88-.87.88-.87.88H86.38v-1.72zm3.158 5.747h-3.145v-2.396H89.5s1.227.09 1.227 1.223c-.012 1.122-1.189 1.173-1.189 1.173zM99.461 15.25H97.34l-4.092 9.237h2.276l.857-2.026h3.861l.87 2.052h2.391l-4.04-9.264zm-2.378 5.415l1.253-3.16 1.266 3.16h-2.52zM104.385 15.224L104.385 24.538 106.482 24.538 106.482 18.562 111.098 24.526 113.029 24.526 113.029 15.249 110.855 15.249 110.855 21.149 106.367 15.237zM129.525 15.237h-2.072l-3.72 8.384-3.377-5.148 3.21-3.224h-2.634l-3.811 4.04v-4.052h-2.161V24.5h2.16v-2.701l1.689-1.72 2.89 4.421h3.9l.844-2.039h3.9l.819 2.039h2.378l-4.015-9.263zm-2.327 5.504l1.253-3.16 1.253 3.16h-2.506zM139.985 17.912l1.573-1.337s-1.509-1.478-3.81-1.478c-2.303 0-3.888 1.159-3.888 2.777s1.266 2.294 3.388 2.702c2.11.407 2.532.815 2.353 1.529-.179.713-1.65.777-2.097.751-.447-.038-1.445-.05-2.455-1.083l-1.573 1.262s1.484 1.643 4.092 1.643c2.609 0 4.194-1.006 4.233-2.93.038-1.924-1.51-2.421-3.197-2.829l-1.726-.357s-.768-.19-.768-.802c0-.612.614-.841 1.624-.841 1.01 0 2.238.751 2.251.993zM143.425 15.249L145.56 15.249 145.56 24.5 143.425 24.5zM9.834 15.237h2.173v5.479s.064 2.128 2.136 2.128 2.212-2.141 2.212-2.141v-5.466h2.149v5.237s.166 4.153-4.259 4.153c-4.424 0-4.411-3.67-4.411-4.14v-5.25zM26.943 20.932s2.02-.484 2.02-2.675c0-2.18-1.828-3.02-3.247-3.02h-5.358v9.25h2.097v-3.313h2.174l1.93 3.313h2.443l-2.059-3.555zm-1.38-1.452h-3.095v-2.46h3.043s1.279.013 1.279 1.211c-.013 1.21-1.228 1.249-1.228 1.249z"/>
    </g>
</svg>
