<svg xmlns="http://www.w3.org/2000/svg" width="64" height="37" viewBox="0 0 64 37">
    <g fill="none" fill-rule="evenodd">
        <path fill="#7B858A" d="M16.97 28.535l-.118.122c-1.549 1.545-3.336 2.377-5.24 2.377-3.932 0-6.792-2.856-6.792-6.899 0-4.162 2.86-7.017 6.791-7.017 1.905 0 3.692.832 5.24 2.378l.12.121 2.5-2.975v-.118c-2.142-2.497-4.645-3.688-7.74-3.688-3.098 0-5.958 1.07-7.982 2.974C1.486 17.833.413 20.687.413 24.135c0 3.331 1.073 6.185 3.336 8.207 2.024 1.903 4.884 2.973 7.981 2.973 3.096 0 5.599-1.188 7.742-3.688v-.118l-2.502-2.974zM22.211 34.841L26.619 34.841 26.619 13.193 22.211 13.193zM43.295 30.202c-1.071.712-2.264 1.07-3.216 1.07-1.43 0-2.144-.714-2.144-2.497V17.356h4.527v-4.162h-4.527v-6.78l-4.29 2.38v4.4h-3.81v4.162h3.81v12.252c0 3.33 1.908 5.588 4.886 5.588 2.023.118 3.216-.475 3.931-.951h.119v-.118l1.071-4.163-.357.238zM46.512 34.841L51.038 34.841 51.038 13.193 46.512 13.193z" transform="translate(.778 .171)"/>
        <path fill="#EE3B28" d="M36.593 4.786c4.902 0 9.344 1.953 12.604 5.112h5.822C50.934 4.124 44.213.343 36.593.343c-7.618 0-14.34 3.781-18.426 9.555h5.823c3.261-3.16 7.701-5.112 12.603-5.112" transform="translate(.778 .171)"/>
        <path fill="#7B858A" d="M58.685 8.67c.308 0 .46-.111.46-.365 0-.244-.152-.354-.46-.354h-.373v.718h.373zm-1.023-1.296h1.062c.663 0 1.062.289 1.062.89 0 .432-.204.668-.504.793l.537 1.046h-.687l-.486-.961h-.334v.961h-.65v-2.73zm3.004 1.432c0-1.177-.861-2.066-2.02-2.066-1.154 0-2 .87-2 2.041 0 1.178.86 2.068 2.02 2.068 1.153 0 2-.87 2-2.043zm-4.523 0c0-1.42 1.1-2.525 2.523-2.525 1.414 0 2.503 1.086 2.503 2.5 0 1.42-1.107 2.527-2.523 2.527-1.423 0-2.503-1.085-2.503-2.502z" transform="translate(.778 .171)"/>
    </g>
</svg>
